<svg width="39" height="40" viewBox="0 0 39 40" fill="none" xmlns="http://www.w3.org/2000/svg">
<path d="M22.9261 5.13929L21.9308 5.23633V5.23633L22.9261 5.13929ZM23.0586 6.49832H24.0586V6.44968L24.0539 6.40128L23.0586 6.49832ZM23.0586 6.49833H22.0586V6.54697L22.0633 6.59538L23.0586 6.49833ZM23.86 9.2161L24.238 8.29032L23.86 9.2161ZM26.3348 7.83628L26.9776 8.6023L26.9776 8.6023L26.3348 7.83628ZM27.2705 7.05107L26.6277 6.28505V6.28505L27.2705 7.05107ZM28.6741 6.22176L28.6242 7.22052L28.6741 6.22176ZM29.9881 7.18692L29.2721 7.88502V7.88502L29.9881 7.18692ZM32.0564 9.30826L32.7724 8.61016L32.0564 9.30826ZM32.9552 10.5885L33.954 10.5389L32.9552 10.5885ZM32.1879 11.9517L31.4061 11.3281V11.3281L32.1879 11.9517ZM31.2644 13.1093L32.0462 13.7329V13.7329L31.2644 13.1093ZM29.9822 15.5517L30.9042 15.1645L30.9042 15.1645L29.9822 15.5517ZM32.6238 16.3461L32.5218 17.3409H32.5218L32.6238 16.3461ZM33.9541 16.4825L33.852 17.4773L33.9541 16.4825ZM35.4923 16.8993L34.75 17.5694L34.75 17.5694L35.4923 16.8993ZM35.4923 23.1008L34.75 22.4307L34.75 22.4307L35.4923 23.1008ZM33.9541 23.5176L33.852 22.5228H33.852L33.9541 23.5176ZM32.6244 23.6539V24.6539H32.6756L32.7265 24.6487L32.6244 23.6539ZM32.6244 23.6539V22.6539H32.5733L32.5224 22.6592L32.6244 23.6539ZM29.9828 24.4483L29.0608 24.0611V24.0611L29.9828 24.4483ZM31.265 26.8907L32.0468 26.2671L31.265 26.8907ZM32.188 28.0477L31.4062 28.6713L32.188 28.0477ZM32.9553 29.4108L31.9565 29.3611L32.9553 29.4108ZM32.0565 30.6911L31.3405 29.993V29.993L32.0565 30.6911ZM29.9882 32.8124L30.7042 33.5105L29.9882 32.8124ZM28.6742 33.7776L28.6243 32.7788H28.6243L28.6742 33.7776ZM27.2705 32.9483L27.9134 32.1822H27.9134L27.2705 32.9483ZM26.3348 32.1631L25.6277 32.8702L25.6586 32.901L25.692 32.9291L26.3348 32.1631ZM26.3348 32.163L27.0419 31.4559L27.0111 31.4251L26.9776 31.397L26.3348 32.163ZM23.0587 33.501L22.0634 33.404L22.0587 33.4524V33.501H23.0587ZM23.0587 33.501L24.0539 33.5981L24.0587 33.5497V33.501H23.0587ZM22.9261 34.8608L21.9308 34.7637L22.9261 34.8608ZM22.5147 36.4073L21.8428 35.6667L21.8428 35.6667L22.5147 36.4073ZM16.4853 36.4073L17.1572 35.6667L17.1572 35.6667L16.4853 36.4073ZM16.0739 34.8608L17.0692 34.7638L17.0692 34.7637L16.0739 34.8608ZM15.9414 33.5017L14.9461 33.5987L15.9414 33.5017ZM12.6652 32.1637L12.0224 31.3977L12.6652 32.1637ZM11.7294 32.949L12.3722 33.715L11.7294 32.949ZM10.3257 33.7783L10.3757 32.7796H10.3757L10.3257 33.7783ZM9.01177 32.8132L9.72777 32.1151H9.72777L9.01177 32.8132ZM6.94346 30.6918L6.22746 31.3899H6.22746L6.94346 30.6918ZM6.04464 29.4116L7.04341 29.3619L6.04464 29.4116ZM6.81199 28.0484L6.03026 27.4248L6.03026 27.4248L6.81199 28.0484ZM7.73547 26.8908L8.51721 27.5144L7.73547 26.8908ZM9.01771 24.4484L9.9397 24.0612L9.9397 24.0612L9.01771 24.4484ZM6.37606 23.654L6.27403 24.6488H6.27403L6.37606 23.654ZM5.04594 23.5176L5.14797 22.5228H5.14797L5.04594 23.5176ZM3.5077 23.1008L2.76539 23.7708H2.76539L3.5077 23.1008ZM3.25 21.528H2.25H3.25ZM3.25 18.4721H4.25H3.25ZM3.5077 16.8993L4.25 17.5694L4.25 17.5694L3.5077 16.8993ZM5.04594 16.4825L5.14797 17.4773H5.14797L5.04594 16.4825ZM6.37667 16.346L6.27464 15.3512L6.37667 16.346ZM9.01833 15.5516L8.09634 15.1644V15.1644L9.01833 15.5516ZM7.73609 13.1092L8.51782 12.4856L7.73609 13.1092ZM6.81207 11.9509L6.03033 12.5745L6.81207 11.9509ZM6.04472 10.5878L7.04348 10.6375V10.6375L6.04472 10.5878ZM6.94354 9.3075L7.65954 10.0056H7.65954L6.94354 9.3075ZM9.01184 7.18616L9.72784 7.88426V7.88426L9.01184 7.18616ZM10.3258 6.22101L10.3757 7.21976H10.3757L10.3258 6.22101ZM11.7295 7.05032L11.0867 7.81634L11.0867 7.81634L11.7295 7.05032ZM12.6653 7.83562L13.3081 7.0696L12.6653 7.83562ZM15.9415 6.49766L14.9462 6.40062V6.40062L15.9415 6.49766ZM16.0739 5.1393L15.0786 5.04226V5.04226L16.0739 5.1393ZM23.9214 5.04225C23.8821 4.63985 23.8453 4.2423 23.7709 3.9179C23.6901 3.56565 23.5393 3.17216 23.1866 2.85213L21.8428 4.33337C21.7759 4.27273 21.789 4.22345 21.8215 4.3651C21.8604 4.5346 21.8864 4.78063 21.9308 5.23633L23.9214 5.04225ZM24.0539 6.40128L23.9214 5.04225L21.9308 5.23633L22.0633 6.59536L24.0539 6.40128ZM24.0586 6.49833V6.49832H22.0586V6.49833H24.0586ZM24.238 8.29032C24.4155 8.36281 24.3693 8.50794 24.2809 8.15272C24.1927 7.79812 24.1381 7.265 24.0539 6.40129L22.0633 6.59538C22.1409 7.39141 22.2076 8.1031 22.34 8.63541C22.4723 9.1671 22.7458 9.84124 23.4819 10.1419L24.238 8.29032ZM25.692 7.07026C25.0272 7.6281 24.615 7.97056 24.3038 8.16205C23.992 8.35388 24.0605 8.21783 24.238 8.29032L23.4819 10.1419C24.218 10.4425 24.8853 10.1525 25.3519 9.86542C25.8191 9.57795 26.3649 9.11643 26.9776 8.6023L25.692 7.07026ZM26.6277 6.28505L25.692 7.07026L26.9776 8.6023L27.9133 7.8171L26.6277 6.28505ZM28.7241 5.22301C28.2398 5.1988 27.8493 5.37643 27.5398 5.57416C27.2545 5.75642 26.9441 6.01952 26.6277 6.28505L27.9133 7.8171C28.2713 7.51669 28.4667 7.35533 28.6166 7.25953C28.7423 7.17919 28.7164 7.22513 28.6242 7.22052L28.7241 5.22301ZM30.7041 6.48882C30.4157 6.19306 30.1331 5.90031 29.8674 5.69051C29.5792 5.4629 29.2083 5.24722 28.7241 5.22301L28.6242 7.22052C28.532 7.21591 28.5108 7.16761 28.6279 7.26009C28.7675 7.37037 28.9459 7.55041 29.2721 7.88502L30.7041 6.48882ZM32.7724 8.61016L30.7041 6.48882L29.2721 7.88502L31.3404 10.0064L32.7724 8.61016ZM33.954 10.5389C33.9308 10.0735 33.7305 9.71327 33.5173 9.43038C33.321 9.17011 33.0474 8.89217 32.7724 8.61016L31.3404 10.0064C31.6521 10.3261 31.8185 10.4994 31.9203 10.6345C32.0051 10.7468 31.9608 10.7259 31.9565 10.6382L33.954 10.5389ZM32.9696 12.5753C33.2152 12.2674 33.4599 11.9637 33.6294 11.6852C33.8136 11.3825 33.9771 11.0042 33.954 10.5389L31.9565 10.6382C31.9521 10.5505 31.994 10.5253 31.9209 10.6455C31.833 10.79 31.6846 10.979 31.4061 11.3281L32.9696 12.5753ZM32.0462 13.7329L32.9696 12.5753L31.4061 11.3281L30.4827 12.4857L32.0462 13.7329ZM30.9042 15.1645C30.9757 15.3348 30.8484 15.4035 31.0238 15.1016C31.201 14.7967 31.521 14.3912 32.0462 13.7329L30.4827 12.4857C29.9999 13.0909 29.5639 13.6332 29.2945 14.0968C29.0234 14.5634 28.7589 15.2215 29.0602 15.9389L30.9042 15.1645ZM32.7259 15.3513C31.8881 15.2654 31.3745 15.21 31.0328 15.1231C30.6944 15.0369 30.8326 14.9941 30.9042 15.1645L29.0602 15.9389C29.3615 16.6563 30.0166 16.9282 30.5396 17.0613C31.0592 17.1935 31.7516 17.2619 32.5218 17.3409L32.7259 15.3513ZM34.0561 15.4877L32.7259 15.3513L32.5218 17.3409L33.852 17.4773L34.0561 15.4877ZM36.2346 16.2293C35.9167 15.8771 35.5255 15.7253 35.1749 15.6431C34.8521 15.5674 34.4564 15.5288 34.0561 15.4877L33.852 17.4773C34.3054 17.5238 34.55 17.5508 34.7185 17.5903C34.8592 17.6233 34.8102 17.6361 34.75 17.5694L36.2346 16.2293ZM36.75 18.4721C36.75 18.0697 36.7519 17.6721 36.7096 17.3433C36.6636 16.9861 36.5525 16.5814 36.2346 16.2293L34.75 17.5694C34.6898 17.5027 34.7075 17.4553 34.726 17.5986C34.7481 17.7702 34.75 18.0163 34.75 18.4721H36.75ZM36.75 21.528V18.4721H34.75V21.528H36.75ZM36.2346 23.7708C36.5525 23.4187 36.6636 23.014 36.7096 22.6568C36.7519 22.328 36.75 21.9304 36.75 21.528H34.75C34.75 21.9838 34.7481 22.2299 34.726 22.4015C34.7075 22.5448 34.6898 22.4974 34.75 22.4307L36.2346 23.7708ZM34.0561 24.5124C34.4564 24.4713 34.8521 24.4327 35.1749 24.357C35.5255 24.2748 35.9167 24.123 36.2346 23.7708L34.75 22.4307C34.8102 22.364 34.8592 22.3768 34.7185 22.4098C34.55 22.4493 34.3054 22.4763 33.852 22.5228L34.0561 24.5124ZM32.7265 24.6487L34.0561 24.5124L33.852 22.5228L32.5224 22.6592L32.7265 24.6487ZM32.6244 24.6539H32.6244V22.6539H32.6244V24.6539ZM30.9048 24.8356C30.8332 25.0059 30.695 24.9631 31.0334 24.877C31.3752 24.79 31.8887 24.7346 32.7265 24.6487L32.5224 22.6592C31.7522 22.7382 31.0598 22.8065 30.5402 22.9387C30.0172 23.0718 29.3621 23.3437 29.0608 24.0611L30.9048 24.8356ZM32.0468 26.2671C31.5216 25.6088 31.2016 25.2033 31.0244 24.8984C30.849 24.5965 30.9763 24.6652 30.9048 24.8356L29.0608 24.0611C28.7595 24.7785 29.024 25.4366 29.2951 25.9032C29.5645 26.3669 30.0005 26.9091 30.4833 27.5143L32.0468 26.2671ZM32.9697 27.4241L32.0468 26.2671L30.4833 27.5143L31.4062 28.6713L32.9697 27.4241ZM33.9541 29.4605C33.9772 28.9951 33.8136 28.6168 33.6295 28.3141C33.46 28.0357 33.2153 27.732 32.9697 27.4241L31.4062 28.6713C31.6847 29.0204 31.833 29.2094 31.9209 29.3538C31.9941 29.4741 31.9522 29.4488 31.9565 29.3611L33.9541 29.4605ZM32.7725 31.3892C33.0474 31.1072 33.3211 30.8292 33.5173 30.569C33.7306 30.2861 33.9309 29.9259 33.9541 29.4605L31.9565 29.3611C31.9609 29.2734 32.0051 29.2525 31.9204 29.3649C31.8186 29.4999 31.6522 29.6733 31.3405 29.993L32.7725 31.3892ZM30.7042 33.5105L32.7725 31.3892L31.3405 29.993L29.2722 32.1143L30.7042 33.5105ZM28.7241 34.7763C29.2084 34.7521 29.5793 34.5364 29.8675 34.3088C30.1332 34.099 30.4158 33.8063 30.7042 33.5105L29.2722 32.1143C28.9459 32.4489 28.7676 32.629 28.628 32.7393C28.5109 32.8317 28.5321 32.7834 28.6243 32.7788L28.7241 34.7763ZM26.6277 33.7143C26.9442 33.9798 27.2546 34.2429 27.5399 34.4252C27.8493 34.6229 28.2399 34.8005 28.7241 34.7763L28.6243 32.7788C28.7165 32.7742 28.7424 32.8202 28.6167 32.7398C28.4667 32.644 28.2714 32.4827 27.9134 32.1822L26.6277 33.7143ZM25.692 32.9291L26.6277 33.7143L27.9134 32.1822L26.9777 31.397L25.692 32.9291ZM25.6277 32.8702L25.6277 32.8702L27.042 31.456L27.0419 31.4559L25.6277 32.8702ZM24.2381 31.709C24.0606 31.7815 23.9921 31.6455 24.3038 31.8373C24.615 32.0288 25.0273 32.3712 25.692 32.9291L26.9776 31.397C26.365 30.8829 25.8191 30.4214 25.3519 30.1339C24.8853 29.8468 24.2181 29.5568 23.482 29.8575L24.2381 31.709ZM24.0539 33.598C24.1381 32.7343 24.1928 32.2012 24.281 31.8466C24.3693 31.4914 24.4156 31.6365 24.2381 31.709L23.482 29.8575C22.7458 30.1581 22.4723 30.8322 22.3401 31.3639C22.2077 31.8962 22.141 32.6079 22.0634 33.404L24.0539 33.598ZM24.0587 33.501V33.501H22.0587V33.501H24.0587ZM23.9214 34.9578L24.0539 33.5981L22.0634 33.404L21.9308 34.7637L23.9214 34.9578ZM23.1866 37.148C23.5393 36.8279 23.6901 36.4344 23.7709 36.0822C23.8453 35.7578 23.8821 35.3602 23.9214 34.9578L21.9308 34.7637C21.8864 35.2195 21.8604 35.4655 21.8215 35.635C21.789 35.7766 21.7759 35.7274 21.8428 35.6667L23.1866 37.148ZM20.9355 37.6667C21.3398 37.6667 21.7391 37.6687 22.0692 37.6261C22.4276 37.5798 22.8339 37.468 23.1866 37.1479L21.8428 35.6667C21.9096 35.6061 21.9574 35.6239 21.8132 35.6425C21.6408 35.6648 21.3934 35.6667 20.9355 35.6667V37.6667ZM18.0645 37.6667H20.9355V35.6667H18.0645V37.6667ZM15.8134 37.1479C16.1661 37.468 16.5724 37.5798 16.9308 37.6261C17.2609 37.6687 17.6602 37.6667 18.0645 37.6667V35.6667C17.6066 35.6667 17.3592 35.6648 17.1868 35.6425C17.0426 35.6239 17.0904 35.6061 17.1572 35.6667L15.8134 37.1479ZM15.0786 34.9578C15.1179 35.3602 15.1547 35.7578 15.2291 36.0822C15.3099 36.4344 15.4607 36.8279 15.8134 37.148L17.1572 35.6667C17.2241 35.7274 17.211 35.7766 17.1785 35.635C17.1396 35.4655 17.1136 35.2195 17.0692 34.7638L15.0786 34.9578ZM14.9461 33.5987L15.0786 34.9578L17.0692 34.7637L16.9367 33.4046L14.9461 33.5987ZM14.7619 31.7097C14.5844 31.6372 14.6307 31.4921 14.7191 31.8473C14.8073 32.2019 14.8619 32.735 14.9461 33.5987L16.9367 33.4046C16.8591 32.6086 16.7924 31.8969 16.66 31.3646C16.5277 30.8329 16.2542 30.1588 15.5181 29.8581L14.7619 31.7097ZM13.308 32.9297C13.9728 32.3719 14.385 32.0294 14.6962 31.8379C15.008 31.6461 14.9394 31.7822 14.7619 31.7097L15.5181 29.8581C14.782 29.5575 14.1147 29.8475 13.6481 30.1346C13.1809 30.422 12.6351 30.8836 12.0224 31.3977L13.308 32.9297ZM12.3722 33.715L13.308 32.9297L12.0224 31.3977L11.0866 32.183L12.3722 33.715ZM10.2758 34.7771C10.7601 34.8013 11.1506 34.6237 11.4601 34.4259C11.7454 34.2437 12.0558 33.9806 12.3722 33.715L11.0866 32.183C10.7286 32.4834 10.5332 32.6448 10.3833 32.7406C10.2575 32.8209 10.2835 32.775 10.3757 32.7796L10.2758 34.7771ZM8.29577 33.5113C8.58413 33.807 8.86678 34.0998 9.13245 34.3096C9.42067 34.5372 9.79156 34.7529 10.2758 34.7771L10.3757 32.7796C10.4679 32.7842 10.4891 32.8325 10.372 32.74C10.2323 32.6297 10.054 32.4497 9.72777 32.1151L8.29577 33.5113ZM6.22746 31.3899L8.29577 33.5113L9.72777 32.1151L7.65946 29.9937L6.22746 31.3899ZM5.04588 29.4612C5.06902 29.9266 5.26932 30.2868 5.48262 30.5697C5.67886 30.83 5.9525 31.1079 6.22746 31.3899L7.65946 29.9937C7.34773 29.674 7.18136 29.5007 7.07955 29.3656C6.99481 29.2533 7.03904 29.2742 7.04341 29.3619L5.04588 29.4612ZM6.03026 27.4248C5.78464 27.7327 5.53992 28.0364 5.37047 28.3149C5.1863 28.6176 5.02273 28.9959 5.04588 29.4612L7.04341 29.3619C7.04777 29.4496 7.00583 29.4748 7.079 29.3546C7.16691 29.2101 7.31526 29.0211 7.59373 28.672L6.03026 27.4248ZM6.95374 26.2672L6.03026 27.4248L7.59373 28.672L8.51721 27.5144L6.95374 26.2672ZM8.09573 24.8356C8.02417 24.6652 8.15153 24.5966 7.9761 24.8985C7.79894 25.2034 7.4789 25.6089 6.95374 26.2672L8.51721 27.5144C9.00004 26.9091 9.43598 26.3669 9.70538 25.9033C9.97651 25.4366 10.241 24.7786 9.9397 24.0612L8.09573 24.8356ZM6.27403 24.6488C7.11176 24.7347 7.62535 24.79 7.96709 24.877C8.30549 24.9631 8.16728 25.006 8.09573 24.8356L9.9397 24.0612C9.6384 23.3438 8.98334 23.0719 8.46033 22.9388C7.94067 22.8065 7.2483 22.7382 6.47809 22.6592L6.27403 24.6488ZM4.94391 24.5124L6.27403 24.6488L6.47809 22.6592L5.14797 22.5228L4.94391 24.5124ZM2.76539 23.7708C3.08327 24.123 3.47452 24.2748 3.82511 24.357C4.14794 24.4327 4.54362 24.4713 4.94391 24.5124L5.14797 22.5228C4.69457 22.4763 4.44997 22.4493 4.28152 22.4098C4.14085 22.3768 4.18982 22.364 4.25 22.4307L2.76539 23.7708ZM2.25 21.528C2.25 21.9304 2.24806 22.328 2.2904 22.6568C2.33637 23.014 2.44752 23.4187 2.76539 23.7708L4.25 22.4307C4.31018 22.4974 4.29248 22.5448 4.27403 22.4015C4.25194 22.2299 4.25 21.9838 4.25 21.528H2.25ZM2.25 18.4721L2.25 21.528H4.25L4.25 18.4721H2.25ZM2.76539 16.2293C2.44752 16.5814 2.33637 16.9861 2.2904 17.3433C2.24806 17.6721 2.25 18.0697 2.25 18.4721H4.25C4.25 18.0163 4.25194 17.7702 4.27403 17.5986C4.29248 17.4553 4.31018 17.5027 4.25 17.5694L2.76539 16.2293ZM4.94391 15.4877C4.54362 15.5288 4.14794 15.5674 3.82511 15.6431C3.47451 15.7253 3.08326 15.8771 2.76539 16.2293L4.25 17.5694C4.18982 17.6361 4.14085 17.6233 4.28152 17.5903C4.44997 17.5508 4.69457 17.5238 5.14797 17.4773L4.94391 15.4877ZM6.27464 15.3512L4.94391 15.4877L5.14797 17.4773L6.4787 17.3408L6.27464 15.3512ZM8.09634 15.1644C8.1679 14.994 8.3061 15.0369 7.9677 15.123C7.62596 15.21 7.11237 15.2653 6.27464 15.3512L6.4787 17.3408C7.24891 17.2618 7.94128 17.1935 8.46095 17.0612C8.98395 16.9281 9.63901 16.6562 9.94031 15.9388L8.09634 15.1644ZM6.95435 13.7328C7.47951 14.3912 7.79956 14.7966 7.97672 15.1015C8.15215 15.4035 8.02478 15.3348 8.09634 15.1644L9.94031 15.9388C10.2416 15.2214 9.97712 14.5634 9.70599 14.0967C9.4366 13.6331 9.00065 13.0909 8.51782 12.4856L6.95435 13.7328ZM6.03033 12.5745L6.95435 13.7328L8.51782 12.4856L7.5938 11.3273L6.03033 12.5745ZM5.04595 10.5381C5.02281 11.0035 5.18638 11.3818 5.37055 11.6845C5.54 11.9629 5.78471 12.2666 6.03033 12.5745L7.5938 11.3273C7.31534 10.9782 7.16698 10.7892 7.07908 10.6448C7.00591 10.5245 7.04784 10.5497 7.04348 10.6375L5.04595 10.5381ZM6.22754 8.6094C5.95258 8.89141 5.67893 9.16936 5.48269 9.42963C5.2694 9.71252 5.0691 10.0727 5.04595 10.5381L7.04348 10.6375C7.03912 10.7252 6.99489 10.7461 7.07963 10.6337C7.18143 10.4987 7.34781 10.3253 7.65954 10.0056L6.22754 8.6094ZM8.29584 6.48806L6.22754 8.6094L7.65954 10.0056L9.72784 7.88426L8.29584 6.48806ZM10.2759 5.22226C9.79164 5.24646 9.42074 5.46214 9.13253 5.68975C8.86686 5.89956 8.58421 6.1923 8.29584 6.48806L9.72784 7.88426C10.0541 7.54965 10.2324 7.36962 10.372 7.25934C10.4891 7.16686 10.4679 7.21515 10.3757 7.21976L10.2759 5.22226ZM12.3723 6.2843C12.0559 6.01877 11.7454 5.75567 11.4602 5.57341C11.1507 5.37567 10.7601 5.19805 10.2759 5.22226L10.3757 7.21976C10.2835 7.22437 10.2576 7.17843 10.3833 7.25877C10.5333 7.35458 10.7287 7.51593 11.0867 7.81634L12.3723 6.2843ZM13.3081 7.0696L12.3723 6.2843L11.0867 7.81634L12.0225 8.60164L13.3081 7.0696ZM14.762 8.28967C14.9395 8.21718 15.0081 8.35323 14.6963 8.1614C14.3851 7.96991 13.9729 7.62745 13.3081 7.0696L12.0225 8.60164C12.6352 9.11578 13.181 9.5773 13.6482 9.86476C14.1148 10.1519 14.782 10.4419 15.5182 10.1412L14.762 8.28967ZM14.9462 6.40062C14.862 7.26434 14.8073 7.79746 14.7192 8.15206C14.6308 8.50729 14.5845 8.36216 14.762 8.28967L15.5182 10.1412C16.2543 9.84058 16.5278 9.16644 16.66 8.63475C16.7924 8.10244 16.8591 7.39074 16.9368 6.5947L14.9462 6.40062ZM15.0786 5.04226L14.9462 6.40062L16.9368 6.5947L17.0692 5.23634L15.0786 5.04226ZM15.8134 2.85213C15.4607 3.17216 15.3099 3.56565 15.2291 3.9179C15.1547 4.2423 15.1179 4.63985 15.0786 5.04226L17.0692 5.23634C17.1136 4.78063 17.1396 4.5346 17.1785 4.36511C17.211 4.22345 17.2241 4.27273 17.1572 4.33337L15.8134 2.85213ZM18.0645 2.33337C17.6602 2.33337 17.2609 2.33143 16.9308 2.37402C16.5724 2.42026 16.1661 2.53211 15.8134 2.85213L17.1572 4.33337C17.0904 4.39402 17.0426 4.37617 17.1868 4.35757C17.3592 4.33532 17.6066 4.33337 18.0645 4.33337V2.33337ZM20.9355 2.33337H18.0645V4.33337H20.9355V2.33337ZM23.1866 2.85213C22.8339 2.53211 22.4276 2.42026 22.0692 2.37402C21.7391 2.33143 21.3398 2.33337 20.9355 2.33337V4.33337C21.3934 4.33337 21.6408 4.33532 21.8132 4.35757C21.9574 4.37617 21.9096 4.39402 21.8428 4.33337L23.1866 2.85213ZM25 20C25 23.1537 22.5139 25.6667 19.5 25.6667V27.6667C23.6659 27.6667 27 24.2102 27 20H25ZM19.5 14.3334C22.5139 14.3334 25 16.8464 25 20H27C27 15.7899 23.6659 12.3334 19.5 12.3334V14.3334ZM14 20C14 16.8464 16.4861 14.3334 19.5 14.3334V12.3334C15.3341 12.3334 12 15.7899 12 20H14ZM19.5 25.6667C16.4861 25.6667 14 23.1537 14 20H12C12 24.2102 15.3341 27.6667 19.5 27.6667V25.6667Z" fill="black"/>
</svg>
