<svg width="141" height="32" viewBox="0 0 141 32" fill="none" xmlns="http://www.w3.org/2000/svg">
<path d="M45.0987 2.83038C48.8113 2.83038 51.5216 3.59094 53.2278 5.11371C54.934 6.63649 55.7846 8.77472 55.7846 11.5301C55.7846 12.7626 55.5911 13.9402 55.2042 15.0626C54.8172 16.1835 54.1834 17.1775 53.3045 18.0448C52.4255 18.9104 51.268 19.5926 49.8304 20.0913C48.3943 20.59 46.6247 20.8385 44.5266 20.8385H42.2066C41.793 20.8385 41.4561 21.1738 41.4561 21.5891V30.8541C41.4561 31.2678 41.1208 31.6047 40.7055 31.6047H37.4833C37.0696 31.6047 36.7327 31.2695 36.7327 30.8541V3.58093C36.7327 3.1673 37.068 2.83038 37.4833 2.83038H45.0987ZM44.7851 6.76659H42.2099C41.7963 6.76659 41.4594 7.10183 41.4594 7.51713V16.1334C41.4594 16.5471 41.7947 16.884 42.2099 16.884H44.0379C45.5206 16.884 46.7765 16.7105 47.8056 16.3619C48.8363 16.015 49.6202 15.4596 50.1573 14.699C50.696 13.9385 50.9645 12.9411 50.9645 11.7085C50.9645 10.0423 50.4625 8.8014 49.4584 7.98914C48.4544 7.17355 46.8966 6.76659 44.7851 6.76659Z" fill="#24979D"/>
<path d="M67.7681 9.4035C70.5234 9.4035 72.6065 10.0139 74.0175 11.2332C75.4268 12.4541 76.1323 14.3554 76.1323 16.9407V30.8525C76.1323 31.2661 75.7971 31.603 75.3818 31.603H73.4071C73.0735 31.603 72.78 31.3829 72.6866 31.0643L71.9394 28.5141H71.7826C71.1655 29.3013 70.5284 29.9535 69.8729 30.4722C69.2158 30.9909 68.4619 31.3745 67.6096 31.623C66.7574 31.8716 65.7133 31.9966 64.4807 31.9966C63.1681 31.9966 62.0006 31.7565 60.9766 31.2778C59.9542 30.7991 59.1503 30.0669 58.5665 29.0829C57.9828 28.0988 57.6909 26.8529 57.6909 25.3435C57.6909 23.1002 58.5282 21.4139 60.201 20.2848C61.8739 19.1573 64.4023 18.5335 67.7881 18.4151L71.5474 18.2766V17.1358C71.5474 15.6397 71.1988 14.5706 70.5033 13.9285C69.8079 13.2863 68.8238 12.9644 67.5513 12.9644C66.4621 12.9644 65.4064 13.1212 64.3823 13.4364C63.5918 13.68 62.8179 13.9618 62.059 14.2837C61.6838 14.4422 61.2534 14.2854 61.0817 13.9151L60.1844 11.9804C60.0126 11.6084 60.161 11.1581 60.5329 10.9863C61.4402 10.5677 62.436 10.2174 63.5251 9.93389C64.886 9.5803 66.2987 9.4035 67.7681 9.4035ZM71.5274 21.976C71.5274 21.549 71.1722 21.2088 70.7452 21.2271L68.7321 21.3122C66.4238 21.3906 64.8026 21.7809 63.8703 22.483C62.938 23.1852 62.4726 24.1526 62.4726 25.3868C62.4726 26.4626 62.7929 27.2465 63.4367 27.7385C64.0805 28.2306 64.9261 28.4774 65.9751 28.4774C67.5763 28.4774 68.9005 28.0221 69.9513 27.1097C71.0004 26.1974 71.5257 24.8631 71.5257 23.1052V21.976H71.5274Z" fill="#24979D"/>
<path d="M99.7859 10.5677V30.8541C99.7859 31.2678 99.4506 31.6047 99.0353 31.6047H96.7454C96.3934 31.6047 96.0899 31.3612 96.0132 31.0176L95.4945 28.6926H95.2576C94.799 29.4398 94.2136 30.0602 93.5064 30.5523C92.7976 31.0443 92.007 31.4079 91.1347 31.6447C90.2624 31.8816 89.3468 32 88.3894 32C86.7616 32 85.3689 31.7214 84.2081 31.1627C83.0456 30.6056 82.155 29.7433 81.5312 28.5741C80.9075 27.4066 80.5972 25.8972 80.5972 24.0475V10.5677C80.5972 10.1541 80.9325 9.81714 81.3478 9.81714H84.5117C84.9253 9.81714 85.2622 10.1524 85.2622 10.5677V23.1802C85.2622 24.8731 85.6058 26.139 86.2946 26.978C86.9834 27.8169 88.0559 28.2372 89.5119 28.2372C90.9162 28.2372 92.027 27.9487 92.8476 27.3716C93.6682 26.7945 94.2553 25.9422 94.6088 24.8131C94.9641 23.6856 95.1392 22.3012 95.1392 20.66V10.5677C95.1392 10.1541 95.4745 9.81714 95.8898 9.81714H99.0336C99.4506 9.81714 99.7859 10.1524 99.7859 10.5677Z" fill="#24979D"/>
<path d="M119.226 25.3852C119.226 26.8146 118.879 28.0221 118.184 29.0061C117.488 29.9902 116.474 30.7357 115.143 31.2394C113.811 31.7431 112.181 31.9967 110.253 31.9967C108.731 31.9967 107.421 31.8883 106.327 31.6714C105.401 31.488 104.516 31.2244 103.67 30.8775C103.388 30.7624 103.207 30.4789 103.207 30.1737V27.8153C103.207 27.2899 103.732 26.923 104.221 27.1164C104.996 27.4233 105.828 27.6985 106.719 27.942C108.012 28.2973 109.234 28.4741 110.39 28.4741C111.899 28.4741 112.992 28.2339 113.667 27.7552C114.343 27.2766 114.681 26.6361 114.681 25.8372C114.681 25.3652 114.546 24.9415 114.278 24.5679C114.008 24.1943 113.511 23.8074 112.782 23.4071C112.055 23.0068 110.98 22.5314 109.564 21.9794C108.187 21.429 107.026 20.8752 106.08 20.3165C105.136 19.7594 104.421 19.0923 103.935 18.3184C103.45 17.5445 103.208 16.5471 103.208 15.3262C103.208 13.3848 103.975 11.912 105.512 10.908C107.046 9.90389 109.072 9.40186 111.593 9.40186C112.93 9.40186 114.193 9.53695 115.38 9.80548C116.326 10.0206 117.258 10.3109 118.177 10.6811C118.564 10.8362 118.744 11.2899 118.583 11.6752L117.702 13.78C117.543 14.1587 117.111 14.3321 116.731 14.182C116.129 13.9452 115.525 13.7333 114.922 13.5482C113.903 13.2347 112.193 12.9611 111.127 12.9911C110.083 13.0212 109.278 13.203 108.709 13.5382C108.085 13.9051 107.775 14.4239 107.775 15.0927C107.775 15.6047 107.925 16.0367 108.227 16.392C108.529 16.7455 109.049 17.1008 109.791 17.4544C110.533 17.8097 111.566 18.2483 112.892 18.7737C114.191 19.2724 115.315 19.7944 116.268 20.3382C117.218 20.8836 117.95 21.549 118.461 22.3363C118.971 23.1219 119.226 24.1376 119.226 25.3852Z" fill="#24979D"/>
<path d="M131.071 9.4035C133.013 9.4035 134.681 9.80379 136.07 10.6044C137.461 11.405 138.53 12.5391 139.277 14.0085C140.024 15.4779 140.4 17.2359 140.4 19.2824V21.012C140.4 21.4256 140.064 21.7625 139.649 21.7625H126.653C126.201 21.7625 125.863 22.1595 125.906 22.6098C126.075 24.316 126.625 25.6604 127.557 26.6444C128.64 27.7852 130.157 28.3573 132.114 28.3573C133.505 28.3573 134.754 28.2222 135.863 27.9537C136.652 27.7619 137.459 27.5067 138.285 27.1848C138.772 26.9947 139.297 27.3616 139.297 27.8853V30.0302C139.297 30.3288 139.122 30.6056 138.847 30.724C137.903 31.1327 136.944 31.4396 135.97 31.6431C134.842 31.8799 133.49 31.9983 131.915 31.9983C129.775 31.9983 127.894 31.5847 126.266 30.7574C124.638 29.9301 123.373 28.6909 122.467 27.038C121.563 25.3852 121.109 23.3253 121.109 20.8585C121.109 18.4184 121.523 16.3452 122.349 14.639C123.176 12.9327 124.337 11.6351 125.833 10.7428C127.332 9.8505 129.078 9.4035 131.071 9.4035ZM131.071 12.8877C129.615 12.8877 128.438 13.3597 127.539 14.3054C126.793 15.0876 126.303 16.1734 126.068 17.5611C125.989 18.0265 126.336 18.4584 126.808 18.4584H135.064C135.495 18.4584 135.853 18.0965 135.813 17.6695C135.741 16.899 135.575 16.2018 135.313 15.5763C134.966 14.7424 134.444 14.0869 133.748 13.6082C133.053 13.1262 132.162 12.8877 131.071 12.8877Z" fill="#24979D"/>
<path d="M7.06001 14.1837C6.93993 14.1787 6.83152 14.1737 6.72477 14.1653L6.7598 13.6967C6.86154 13.7033 6.96494 13.71 7.07002 13.7133C7.16842 13.7133 7.27683 13.71 7.38357 13.705L7.40526 14.1753C7.29018 14.182 7.17509 14.1837 7.06001 14.1837ZM8.07573 14.112L8.00902 13.6466C8.21583 13.6166 8.42431 13.5766 8.62779 13.5282L8.73954 13.9852C8.52105 14.0369 8.29922 14.0803 8.07573 14.112ZM6.0593 14.0919C5.83581 14.0586 5.61399 14.0169 5.4005 13.9669L5.50724 13.5082C5.70905 13.5549 5.91753 13.5949 6.12935 13.6266L6.0593 14.0919ZM9.38666 13.7934L9.23322 13.3497C9.4317 13.2814 9.6285 13.2013 9.81697 13.1146L10.0121 13.5415C9.8103 13.6349 9.59848 13.72 9.38666 13.7934ZM4.75171 13.7867C4.53822 13.7167 4.32474 13.6366 4.12126 13.5482L4.30806 13.1162C4.49986 13.198 4.69834 13.273 4.89848 13.3381L4.75171 13.7867ZM3.51416 13.2513C3.31569 13.1429 3.12222 13.0228 2.93875 12.8961L3.20561 12.5091C3.37573 12.6275 3.55586 12.7376 3.73932 12.8394L3.51416 13.2513ZM10.6125 13.2313L10.3774 12.8244C10.5575 12.7193 10.736 12.6042 10.9077 12.4824L11.1813 12.8644C10.9978 12.9961 10.806 13.1196 10.6125 13.2313ZM2.40337 12.4841C2.23325 12.3373 2.06647 12.1822 1.91302 12.0188L2.25327 11.6952C2.3967 11.847 2.55014 11.9921 2.70859 12.1272L2.40337 12.4841ZM11.71 12.4491L11.4014 12.0938C11.5599 11.9571 11.7133 11.8103 11.8568 11.6585L12.197 11.9837C12.0435 12.1455 11.8784 12.3023 11.71 12.4491ZM1.47104 11.5051C1.33428 11.3283 1.20419 11.1415 1.0841 10.9496L1.48272 10.7011C1.5928 10.8779 1.71455 11.0531 1.84131 11.2165L1.47104 11.5051ZM12.639 11.4717L12.2687 11.1815C12.3988 11.0164 12.5222 10.8429 12.634 10.6678L13.0292 10.923C12.9108 11.1114 12.7791 11.2949 12.639 11.4717ZM0.755536 10.3609C0.657133 10.1607 0.565401 9.95392 0.485345 9.7421L0.923989 9.57365C0.999043 9.77046 1.0841 9.9656 1.17583 10.1507L0.755536 10.3609ZM13.3695 10.3392L12.9509 10.124C13.0476 9.93891 13.1343 9.74544 13.2127 9.5503L13.6497 9.72542C13.5663 9.93224 13.4712 10.1391 13.3695 10.3392ZM0.275195 9.10164C0.215153 8.88648 0.165117 8.66465 0.123421 8.44449L0.585416 8.35943C0.623776 8.56625 0.670476 8.77306 0.727183 8.97488L0.275195 9.10164ZM13.8698 9.08662L13.4179 8.95486C13.4762 8.75472 13.5263 8.5479 13.5663 8.34275L14.0283 8.43115C13.9866 8.65131 13.9332 8.87147 13.8698 9.08662ZM0.0316892 7.77734C0.011675 7.55551 0 7.32868 0 7.10351H0.470334C0.470334 7.31367 0.480341 7.52549 0.500355 7.73397L0.0316892 7.77734ZM14.1234 7.76233L13.6547 7.71896C13.6747 7.51048 13.6847 7.29865 13.6847 7.09017V7.06182L14.155 7.05848V7.09017C14.155 7.31366 14.145 7.5405 14.1234 7.76233ZM0.498687 6.47138L0.0300213 6.42969C0.0500355 6.20619 0.078389 5.98103 0.118417 5.76253L0.58208 5.84593C0.543719 6.05108 0.517034 6.26123 0.498687 6.47138ZM13.653 6.42969C13.633 6.2212 13.6013 6.01105 13.5613 5.8059L14.0233 5.71583C14.0667 5.93599 14.1 6.15949 14.1217 6.38299L13.653 6.42969ZM0.720512 5.22881L0.266856 5.10372C0.326899 4.8869 0.396949 4.67174 0.475338 4.46159L0.91565 4.62671C0.840597 4.82518 0.775551 5.027 0.720512 5.22881ZM13.4112 5.19545C13.3511 4.99531 13.2811 4.79516 13.2027 4.60169L13.638 4.42489C13.7214 4.63338 13.7981 4.84687 13.8615 5.06202L13.4112 5.19545ZM1.16416 4.05129L0.742194 3.84447C0.842265 3.64266 0.950675 3.44251 1.06909 3.25404L1.46938 3.50089C1.3593 3.67768 1.25756 3.86282 1.16416 4.05129ZM12.9375 4.0296C12.8408 3.84447 12.734 3.661 12.6206 3.48587L13.0142 3.22902C13.136 3.41749 13.2511 3.61263 13.3545 3.81111L12.9375 4.0296ZM1.8263 2.98217L1.4527 2.6953C1.58946 2.51683 1.7379 2.34337 1.89134 2.17992L2.23325 2.50182C2.08982 2.65527 1.95305 2.81705 1.8263 2.98217ZM12.252 2.97217C12.1219 2.80871 11.9818 2.6486 11.8367 2.49682L12.1753 2.17158C12.3304 2.33337 12.4805 2.50516 12.619 2.68029L12.252 2.97217ZM2.68691 2.06984L2.38002 1.71292C2.55014 1.56614 2.73027 1.42604 2.91374 1.29761L3.18226 1.68289C3.01214 1.80465 2.84535 1.93308 2.68691 2.06984ZM11.3797 2.06484C11.2213 1.92807 11.0545 1.79798 10.8827 1.67622L11.1546 1.29261C11.338 1.4227 11.5165 1.56114 11.6866 1.70791L11.3797 2.06484ZM3.71597 1.35099L3.48748 0.940686C3.68261 0.832273 3.88609 0.732201 4.09291 0.640467L4.28137 1.07078C4.0879 1.15584 3.89777 1.25091 3.71597 1.35099ZM10.3523 1.33764C10.1706 1.23423 9.98209 1.1375 9.79195 1.05077L9.98542 0.62212C10.1906 0.713854 10.3924 0.81893 10.5858 0.929011L10.3523 1.33764ZM4.87012 0.847284L4.72335 0.400292C4.9335 0.330241 5.15032 0.268529 5.37048 0.216825L5.47889 0.673825C5.27041 0.723861 5.06693 0.782237 4.87012 0.847284ZM9.20487 0.81893C9.00806 0.750547 8.80458 0.692171 8.59944 0.643803L8.70785 0.186803C8.92634 0.238507 9.14483 0.301887 9.35664 0.375274L9.20487 0.81893ZM6.09933 0.555405L6.02928 0.0900657C6.2461 0.056708 6.46959 0.0316898 6.69475 0.013343L6.73145 0.482018C6.51629 0.498697 6.30448 0.523715 6.09933 0.555405ZM7.98067 0.527051C7.77385 0.498697 7.56203 0.478682 7.35355 0.470343L7.37357 0C7.59706 0.0100073 7.82389 0.0300219 8.04571 0.0617117L7.98067 0.527051Z" fill="#24979D"/>
<path d="M17.2839 3.83113C24.6425 3.83113 30.6301 9.81883 30.6301 17.1775C30.6301 24.5362 24.6425 30.5239 17.2839 30.5239C9.92538 30.5239 3.9378 24.5362 3.9378 17.1775C3.9378 9.81883 9.92538 3.83113 17.2839 3.83113ZM17.2839 2.82373C9.35665 2.82373 2.93042 9.25008 2.93042 17.1775C2.93042 25.105 9.35665 31.5313 17.2839 31.5313C25.2112 31.5313 31.6375 25.105 31.6375 17.1775C31.6375 9.25008 25.2112 2.82373 17.2839 2.82373Z" fill="#24979D"/>
</svg>
