<svg width="174" height="49" viewBox="0 0 174 49" fill="none" xmlns="http://www.w3.org/2000/svg">
<path d="M14.357 0.259521C20.5606 0.259521 25.0892 1.53036 27.9402 4.07482C30.7912 6.61928 32.2125 10.1921 32.2125 14.7961C32.2125 16.8557 31.8892 18.8232 31.2426 20.6988C30.5961 22.5716 29.5371 24.2326 28.0684 25.6818C26.5997 27.1283 24.6656 28.2681 22.2633 29.1014C19.8638 29.9347 16.907 30.3499 13.4011 30.3499H9.52456C8.83341 30.3499 8.27047 30.9101 8.27047 31.6041V47.0854C8.27047 47.7766 7.7103 48.3395 7.01637 48.3395H1.63214C0.940999 48.3395 0.378052 47.7794 0.378052 47.0854V1.51364C0.378052 0.82248 0.938213 0.259521 1.63214 0.259521H14.357ZM13.8331 6.83666H9.53013C8.83899 6.83666 8.27604 7.39683 8.27604 8.09078V22.488C8.27604 23.1792 8.8362 23.7421 9.53013 23.7421H12.5845C15.0621 23.7421 17.1606 23.4523 18.8801 22.8698C20.6024 22.2902 21.9122 21.3621 22.8096 20.0913C23.7097 18.8204 24.1584 17.1539 24.1584 15.0943C24.1584 12.3102 23.3196 10.2367 21.6419 8.87948C19.9642 7.51667 17.3612 6.83666 13.8331 6.83666Z" fill="white"/>
<path d="M52.2362 11.2427C56.8401 11.2427 60.3209 12.2627 62.6786 14.2999C65.0335 16.34 66.2123 19.5171 66.2123 23.8368V47.0825C66.2123 47.7737 65.6521 48.3366 64.9582 48.3366H61.6586C61.1012 48.3366 60.6107 47.9688 60.4546 47.4365L59.2061 43.1752H58.9442C57.913 44.4907 56.8484 45.5804 55.7532 46.4471C54.6552 47.3138 53.3955 47.9548 51.9714 48.3701C50.5473 48.7853 48.8027 48.9943 46.7432 48.9943C44.55 48.9943 42.5992 48.593 40.888 47.7932C39.1797 46.9933 37.8364 45.7699 36.861 44.1256C35.8856 42.4813 35.3979 40.3995 35.3979 37.8773C35.3979 34.1289 36.7969 31.3113 39.5921 29.4246C42.3874 27.5406 46.6122 26.4983 52.2696 26.3004L58.5512 26.0691V24.1629C58.5512 21.663 57.9687 19.8766 56.8066 18.8036C55.6445 17.7306 54.0002 17.1928 51.8739 17.1928C50.054 17.1928 48.2899 17.4547 46.5788 17.9815C45.2578 18.3883 43.9647 18.8593 42.6967 19.3972C42.0697 19.662 41.3506 19.4 41.0636 18.7813L39.5643 15.5485C39.2772 14.927 39.5252 14.1745 40.1467 13.8875C41.6628 13.1879 43.3265 12.6027 45.1464 12.1289C47.4204 11.5381 49.7809 11.2427 52.2362 11.2427ZM58.5178 32.2505C58.5178 31.5371 57.9242 30.9685 57.2107 30.9992L53.847 31.1413C49.9899 31.2723 47.2811 31.9244 45.7232 33.0977C44.1654 34.271 43.3878 35.8874 43.3878 37.9498C43.3878 39.7473 43.9229 41.0572 44.9987 41.8793C46.0744 42.7015 47.4873 43.1139 49.2403 43.1139C51.9157 43.1139 54.1284 42.3531 55.8842 40.8287C57.6371 39.3042 58.515 37.0747 58.515 34.1373V32.2505H58.5178Z" fill="white"/>
<path d="M105.736 13.188V47.0853C105.736 47.7765 105.176 48.3394 104.482 48.3394H100.655C100.067 48.3394 99.56 47.9325 99.4318 47.3584L98.5651 43.4735H98.1693C97.4029 44.722 96.4247 45.7587 95.2431 46.5809C94.0587 47.403 92.7377 48.0106 91.2802 48.4063C89.8226 48.802 88.2926 48.9999 86.693 48.9999C83.973 48.9999 81.646 48.5345 79.7063 47.6009C77.7639 46.6701 76.2757 45.2292 75.2334 43.2756C74.1911 41.3247 73.6727 38.8026 73.6727 35.7119V13.188C73.6727 12.4968 74.2329 11.9338 74.9268 11.9338H80.2135C80.9047 11.9338 81.4676 12.494 81.4676 13.188V34.2627C81.4676 37.0914 82.0417 39.2067 83.1927 40.6085C84.3436 42.0103 86.1356 42.7126 88.5686 42.7126C90.9151 42.7126 92.7712 42.2305 94.1423 41.2662C95.5134 40.3019 96.4944 38.8778 97.0852 36.9911C97.6788 35.1071 97.9715 32.794 97.9715 30.0516V13.188C97.9715 12.4968 98.5316 11.9338 99.2255 11.9338H104.479C105.176 11.9338 105.736 12.494 105.736 13.188Z" fill="white"/>
<path d="M138.219 37.9471C138.219 40.3355 137.64 42.3532 136.478 43.9975C135.315 45.6418 133.621 46.8875 131.397 47.7292C129.17 48.5708 126.448 48.9944 123.226 48.9944C120.682 48.9944 118.494 48.8133 116.666 48.451C115.119 48.1444 113.639 47.7041 112.226 47.1244C111.755 46.9321 111.452 46.4583 111.452 45.9483V42.0076C111.452 41.1297 112.329 40.5166 113.146 40.8399C114.442 41.3527 115.832 41.8125 117.321 42.2194C119.481 42.813 121.523 43.1085 123.455 43.1085C125.977 43.1085 127.802 42.7071 128.931 41.9073C130.059 41.1074 130.625 40.0373 130.625 38.7023C130.625 37.9136 130.399 37.2058 129.951 36.5815C129.499 35.9572 128.669 35.3107 127.451 34.6418C126.236 33.9729 124.441 33.1787 122.075 32.2562C119.773 31.3365 117.833 30.4112 116.253 29.4776C114.676 28.5468 113.48 27.432 112.669 26.1389C111.858 24.8458 111.454 23.1792 111.454 21.1391C111.454 17.8952 112.736 15.4343 115.303 13.7566C117.867 12.0789 121.253 11.24 125.464 11.24C127.699 11.24 129.809 11.4657 131.793 11.9144C133.373 12.2739 134.931 12.7589 136.466 13.3776C137.113 13.6367 137.414 14.3948 137.144 15.0386L135.672 18.5557C135.407 19.1883 134.686 19.4781 134.05 19.2273C133.044 18.8316 132.035 18.4776 131.027 18.1683C129.324 17.6443 126.467 17.1873 124.686 17.2375C122.942 17.2876 121.596 17.5914 120.645 18.1516C119.603 18.7647 119.085 19.6314 119.085 20.749C119.085 21.6046 119.336 22.3264 119.84 22.92C120.344 23.5108 121.214 24.1044 122.454 24.6953C123.694 25.2889 125.419 26.0218 127.635 26.8997C129.806 27.733 131.684 28.6053 133.276 29.5138C134.864 30.4252 136.087 31.5372 136.94 32.8526C137.793 34.1652 138.219 35.8625 138.219 37.9471Z" fill="white"/>
<path d="M158.012 11.2427C161.256 11.2427 164.043 11.9115 166.364 13.2493C168.688 14.587 170.475 16.4821 171.723 18.9374C172.972 21.3927 173.599 24.3301 173.599 27.7496V30.6397C173.599 31.3308 173.039 31.8938 172.345 31.8938H150.629C149.874 31.8938 149.308 32.5571 149.381 33.3095C149.662 36.1606 150.582 38.4068 152.14 40.0511C153.949 41.9574 156.485 42.9133 159.754 42.9133C162.078 42.9133 164.165 42.6875 166.018 42.2388C167.337 41.9183 168.685 41.4919 170.065 40.9541C170.879 40.6364 171.757 41.2495 171.757 42.1246V45.7086C171.757 46.2074 171.464 46.67 171.004 46.8679C169.427 47.5507 167.824 48.0635 166.197 48.4035C164.313 48.7993 162.053 48.9971 159.422 48.9971C155.846 48.9971 152.703 48.306 149.983 46.9237C147.263 45.5413 145.148 43.4707 143.634 40.7088C142.124 37.947 141.366 34.5051 141.366 30.3833C141.366 26.306 142.057 22.8419 143.436 19.9908C144.819 17.1398 146.758 14.9716 149.258 13.4806C151.764 11.9896 154.681 11.2427 158.012 11.2427ZM158.012 17.0646C155.579 17.0646 153.611 17.8533 152.109 19.4334C150.863 20.7405 150.044 22.5548 149.651 24.8735C149.52 25.6511 150.1 26.3729 150.889 26.3729H164.684C165.403 26.3729 166.002 25.7681 165.935 25.0547C165.815 23.7671 165.536 22.6022 165.099 21.5571C164.519 20.1636 163.647 19.0684 162.485 18.2685C161.323 17.4631 159.834 17.0646 158.012 17.0646Z" fill="white"/>
</svg>
