<svg width="50" height="36" viewBox="0 0 50 36" fill="none" xmlns="http://www.w3.org/2000/svg">
<path d="M48.1549 15.2146C46.1413 14.7465 44.101 14.4277 42.0319 14.4143C41.2623 14.4098 41.0295 14.1891 41.0628 13.4089C41.1692 10.9144 40.8809 8.45554 40.2267 6.0435C39.8297 4.58112 39.0247 4.10852 37.5921 4.48972C35.6294 5.0136 33.7488 5.75593 31.9902 6.76578C31.3626 7.12692 31.0876 7.03552 30.7483 6.41133C29.6306 4.35151 28.2334 2.4901 26.5768 0.83377C25.4635 -0.278621 24.5565 -0.274162 23.4366 0.847146C21.8354 2.44997 20.4516 4.23559 19.3893 6.23745C18.948 7.06896 18.6064 7.09794 17.828 6.65209C16.1648 5.70243 14.3817 5.00468 12.5233 4.5187C10.982 4.11521 10.2147 4.53654 9.8 6.05911C9.15466 8.43325 8.84862 10.8587 8.97281 13.3131C9.01938 14.236 8.68894 14.4054 7.8684 14.4165C5.83921 14.4433 3.83442 14.7531 1.85625 15.2168C0.263945 15.5913 -0.303783 16.4072 0.157496 17.9566C2.19777 24.7981 5.9878 30.2776 12.4834 33.5702C16.4309 35.5698 20.6467 36.2096 25.091 35.922C27.4683 36.1093 29.89 35.9577 32.2785 35.4182C39.9162 33.695 45.1123 28.9958 48.4011 21.9915C48.9976 20.7186 49.4877 19.4033 49.8514 18.048C50.2883 16.4072 49.7938 15.5936 48.1549 15.2146ZM12.6719 7.15367C14.2842 7.74887 15.8011 8.32625 17.145 9.31157C17.4887 9.56348 17.5575 9.70615 17.4466 10.0873C15.8454 15.6181 15.7634 21.131 17.6928 26.6127C17.7571 26.7955 17.7016 27.0207 17.7016 27.3907C12.8338 21.3606 11.2304 14.6863 12.6719 7.15367ZM3.18242 17.5263C4.93883 17.2231 6.69746 17.0426 8.46939 16.9534C8.97281 16.9289 9.25445 17.0649 9.36977 17.5798C10.7137 23.523 13.956 28.2913 18.4091 32.3106C18.4601 32.3552 18.4645 32.4533 18.4889 32.5269C12.5987 31.8447 5.18278 24.5997 3.18242 17.5263ZM24.9535 33.4007C20.4272 27.8789 18.0609 21.7463 19.2052 14.5035C19.8816 10.2256 21.78 6.52948 24.4212 3.17001C24.7561 2.74646 24.9601 2.35857 25.5212 3.04518C33.2942 12.5685 32.824 24.5529 24.9535 33.4007ZM32.5668 10.5488C32.2718 9.74627 32.4515 9.33386 33.2543 8.97941C34.6004 8.38421 35.8689 7.61512 37.3016 7.21608C39.1688 13.4736 36.2748 24.7803 32.1033 27.1277C33.2055 24.3478 33.7355 21.5568 33.8131 18.6967C33.8863 15.9146 33.5337 13.1748 32.5668 10.5488ZM31.438 32.5113C33.0236 30.9976 34.5339 29.5129 35.8224 27.821C38.06 24.8828 39.7011 21.6437 40.5571 18.0435C40.77 17.1518 41.1049 16.8509 41.992 16.9646C43.5843 17.1674 45.1854 17.29 46.791 17.4483C45.629 23.815 37.1729 32.1145 31.438 32.5113Z" fill="#020203"/>
</svg>
