<svg width="53" height="54" viewBox="0 0 53 54" fill="none" xmlns="http://www.w3.org/2000/svg">
<path d="M11.7968 24.23C11.5962 24.2217 11.415 24.2133 11.2367 24.1994L11.2952 23.4162C11.4652 23.4274 11.638 23.4385 11.8135 23.4441C11.978 23.4441 12.1591 23.4385 12.3375 23.4302L12.3737 24.2161C12.1814 24.2272 11.9891 24.23 11.7968 24.23ZM13.494 24.1102L13.3825 23.3326C13.7281 23.2825 14.0765 23.2156 14.4165 23.1348L14.6032 23.8984C14.2381 23.9848 13.8675 24.0572 13.494 24.1102ZM10.1247 24.0767C9.75126 24.021 9.3806 23.9513 9.02388 23.8677L9.20224 23.1013C9.53946 23.1794 9.88781 23.2462 10.2417 23.2992L10.1247 24.0767ZM15.6845 23.5779L15.4281 22.8366C15.7597 22.7223 16.0886 22.5885 16.4035 22.4436L16.7296 23.1571C16.3924 23.3131 16.0384 23.4553 15.6845 23.5779ZM7.93979 23.5667C7.58307 23.4497 7.22635 23.3159 6.88636 23.1682L7.19849 22.4464C7.51898 22.583 7.85061 22.7084 8.18504 22.8171L7.93979 23.5667ZM5.87194 22.6721C5.5403 22.491 5.21702 22.2903 4.91047 22.0785L5.35636 21.432C5.64062 21.6298 5.94161 21.8138 6.24816 21.9838L5.87194 22.6721ZM17.7329 22.6387L17.3399 21.9587C17.6409 21.7831 17.9391 21.5908 18.2261 21.3874L18.6832 22.0256C18.3766 22.2457 18.0561 22.452 17.7329 22.6387ZM4.01588 21.3902C3.73162 21.1449 3.45293 20.8857 3.19654 20.6126L3.76506 20.0719C4.00473 20.3255 4.26112 20.568 4.52588 20.7938L4.01588 21.3902ZM19.5666 21.3316L19.051 20.738C19.3158 20.5095 19.5722 20.2642 19.8119 20.0106L20.3804 20.5541C20.124 20.8244 19.8481 21.0864 19.5666 21.3316ZM2.45802 19.7542C2.2295 19.4588 2.01212 19.1467 1.81147 18.8262L2.47753 18.4109C2.66146 18.7063 2.8649 18.999 3.0767 19.2721L2.45802 19.7542ZM21.1189 19.6985L20.5002 19.2136C20.7176 18.9377 20.9238 18.6478 21.1105 18.3552L21.771 18.7816C21.5732 19.0965 21.353 19.4031 21.1189 19.6985ZM1.26245 17.8424C1.09803 17.508 0.944749 17.1624 0.810979 16.8084L1.54393 16.527C1.66934 16.8558 1.81147 17.1819 1.96474 17.4912L1.26245 17.8424ZM22.3395 17.8062L21.64 17.4467C21.8017 17.1373 21.9466 16.814 22.0776 16.488L22.8077 16.7806C22.6684 17.1262 22.5095 17.4717 22.3395 17.8062ZM0.459834 15.7383C0.359506 15.3788 0.2759 15.0081 0.206228 14.6402L0.978191 14.4981C1.04229 14.8437 1.12032 15.1892 1.21508 15.5265L0.459834 15.7383ZM23.1756 15.7132L22.4204 15.493C22.5179 15.1586 22.6015 14.813 22.6684 14.4702L23.4404 14.6179C23.3707 14.9858 23.2815 15.3537 23.1756 15.7132ZM0.0529505 13.5255C0.0195081 13.1548 0 12.7758 0 12.3995H0.785897C0.785897 12.7507 0.802619 13.1046 0.836061 13.453L0.0529505 13.5255ZM23.5992 13.5004L22.8161 13.4279C22.8495 13.0795 22.8663 12.7256 22.8663 12.3772V12.3299L23.6522 12.3243V12.3772C23.6522 12.7507 23.6354 13.1297 23.5992 13.5004ZM0.833274 11.3433L0.0501637 11.2736C0.0836061 10.9002 0.130983 10.5239 0.197868 10.1588L0.972618 10.2982C0.90852 10.641 0.86393 10.9921 0.833274 11.3433ZM22.8133 11.2736C22.7799 10.9253 22.7269 10.5741 22.66 10.2313L23.432 10.0808C23.5045 10.4487 23.5602 10.8221 23.5964 11.1956L22.8133 11.2736ZM1.20393 9.26703L0.445899 9.05801C0.546226 8.69571 0.663275 8.3362 0.794258 7.98505L1.52999 8.26095C1.40458 8.5926 1.29589 8.92982 1.20393 9.26703ZM22.4092 9.21129C22.3089 8.87686 22.1918 8.54243 22.0609 8.21915L22.7882 7.92374C22.9276 8.2721 23.0558 8.62883 23.1617 8.98834L22.4092 9.21129ZM1.94524 7.29947L1.24016 6.95389C1.40737 6.61667 1.58852 6.28224 1.78638 5.96732L2.45523 6.37978C2.2713 6.6752 2.1013 6.98454 1.94524 7.29947ZM21.6178 7.26324C21.4561 6.95389 21.2778 6.64733 21.0882 6.3547L21.7459 5.92551C21.9494 6.24043 22.1417 6.56651 22.3145 6.89815L21.6178 7.26324ZM3.05162 5.51305L2.42736 5.0337C2.65589 4.7355 2.90392 4.44566 3.16031 4.17254L3.73162 4.71041C3.49195 4.96681 3.26342 5.23714 3.05162 5.51305ZM20.4723 5.49633C20.255 5.22321 20.0209 4.95566 19.7784 4.70205L20.3442 4.1586C20.6033 4.42894 20.8541 4.71599 21.0855 5.00862L20.4723 5.49633ZM4.48965 3.9886L3.97686 3.3922C4.26112 3.14695 4.56211 2.91285 4.86866 2.69826L5.31735 3.34203C5.03309 3.54548 4.7544 3.76007 4.48965 3.9886ZM19.0148 3.98024C18.7501 3.75171 18.4714 3.53433 18.1843 3.33089L18.6386 2.6899C18.9451 2.90728 19.2433 3.13859 19.5276 3.38384L19.0148 3.98024ZM6.20915 2.78744L5.82735 2.10185C6.15341 1.9207 6.49341 1.75349 6.83898 1.60021L7.1539 2.31923C6.83062 2.46137 6.51292 2.62022 6.20915 2.78744ZM17.2981 2.76514C16.9943 2.59235 16.6794 2.43071 16.3617 2.28579L16.685 1.56955C17.0278 1.72283 17.365 1.89841 17.6883 2.08235L17.2981 2.76514ZM8.13766 1.94579L7.89242 1.19889C8.24356 1.08184 8.60585 0.978724 8.97372 0.892329L9.15487 1.65595C8.80651 1.73955 8.46651 1.8371 8.13766 1.94579ZM15.3807 1.89841C15.0519 1.78414 14.7119 1.6866 14.3691 1.60578L14.5502 0.842165C14.9153 0.928559 15.2804 1.03446 15.6343 1.15709L15.3807 1.89841ZM10.1916 1.45807L10.0745 0.680523C10.4368 0.624785 10.8103 0.582981 11.1865 0.552325L11.2478 1.33545C10.8883 1.36332 10.5344 1.40512 10.1916 1.45807ZM13.3352 1.4107C12.9896 1.36332 12.6357 1.32988 12.2873 1.31594L12.3208 0.530029C12.6942 0.546751 13.0732 0.580194 13.4439 0.633145L13.3352 1.4107Z" fill="white"/>
<path d="M28.8803 6.93159C41.176 6.93159 51.1809 16.9366 51.1809 29.2326C51.1809 41.5285 41.176 51.5335 28.8803 51.5335C16.5847 51.5335 6.57981 41.5285 6.57981 29.2326C6.57981 16.9366 16.5847 6.93159 28.8803 6.93159ZM28.8803 5.24829C15.6344 5.24829 4.89655 15.9863 4.89655 29.2326C4.89655 42.4788 15.6344 53.2168 28.8803 53.2168C42.1263 53.2168 52.8641 42.4788 52.8641 29.2326C52.8641 15.9863 42.1263 5.24829 28.8803 5.24829Z" fill="white"/>
</svg>
