<svg width="39" height="40" viewBox="0 0 39 40" fill="none" xmlns="http://www.w3.org/2000/svg">
<path fill-rule="evenodd" clip-rule="evenodd" d="M34.125 23.3334C34.125 31.6176 27.5772 38.3334 19.5 38.3334C11.4228 38.3334 4.875 31.6176 4.875 23.3334C4.875 15.0491 11.4228 8.33337 19.5 8.33337C27.5772 8.33337 34.125 15.0491 34.125 23.3334ZM19.5 33C24.6302 33 28.875 28.7202 28.875 23.3334C28.875 17.9466 24.6302 13.6667 19.5 13.6667C14.3698 13.6667 10.125 17.9466 10.125 23.3334C10.125 28.7202 14.3698 33 19.5 33ZM19.5 35C25.7822 35 30.875 29.7767 30.875 23.3334C30.875 16.8901 25.7822 11.6667 19.5 11.6667C13.2178 11.6667 8.125 16.8901 8.125 23.3334C8.125 29.7767 13.2178 35 19.5 35ZM21 18.3334C21 17.5049 20.3284 16.8334 19.5 16.8334C18.6716 16.8334 18 17.5049 18 18.3334V23.3334C18 24.1618 18.6716 24.8334 19.5 24.8334C20.3284 24.8334 21 24.1618 21 23.3334V18.3334Z" fill="black"/>
<path d="M28.4375 12.5L30.875 10" stroke="black" stroke-width="3" stroke-linecap="round"/>
<path d="M16.3607 3.95103C16.5459 3.77383 16.9539 3.61725 17.5215 3.50558C18.0891 3.39391 18.7846 3.33337 19.5 3.33337C20.2154 3.33337 20.9109 3.39391 21.4785 3.50558C22.0461 3.61725 22.4541 3.77383 22.6393 3.95102" stroke="black" stroke-width="3" stroke-linecap="round"/>
</svg>
