<svg width="235" height="54" viewBox="0 0 235 54" fill="none" xmlns="http://www.w3.org/2000/svg">
<path d="M75.357 5.25952C81.5606 5.25952 86.0892 6.53036 88.9402 9.07482C91.7912 11.6193 93.2125 15.1921 93.2125 19.7961C93.2125 21.8557 92.8892 23.8232 92.2426 25.6988C91.5961 27.5716 90.5371 29.2326 89.0684 30.6818C87.5997 32.1283 85.6656 33.2681 83.2633 34.1014C80.8638 34.9347 77.907 35.3499 74.4011 35.3499H70.5246C69.8334 35.3499 69.2705 35.9101 69.2705 36.6041V52.0854C69.2705 52.7766 68.7103 53.3395 68.0164 53.3395H62.6321C61.941 53.3395 61.3781 52.7794 61.3781 52.0854V6.51364C61.3781 5.82248 61.9382 5.25952 62.6321 5.25952H75.357ZM74.8331 11.8367H70.5301C69.839 11.8367 69.276 12.3968 69.276 13.0908V27.488C69.276 28.1792 69.8362 28.7421 70.5301 28.7421H73.5845C76.0621 28.7421 78.1606 28.4523 79.8801 27.8698C81.6024 27.2902 82.9122 26.3621 83.8096 25.0913C84.7097 23.8204 85.1584 22.1539 85.1584 20.0943C85.1584 17.3102 84.3196 15.2367 82.6419 13.8795C80.9642 12.5167 78.3612 11.8367 74.8331 11.8367Z" fill="white"/>
<path d="M113.236 16.2427C117.84 16.2427 121.321 17.2627 123.679 19.2999C126.033 21.34 127.212 24.5171 127.212 28.8368V52.0825C127.212 52.7737 126.652 53.3366 125.958 53.3366H122.659C122.101 53.3366 121.611 52.9688 121.455 52.4365L120.206 48.1752H119.944C118.913 49.4907 117.848 50.5804 116.753 51.4471C115.655 52.3138 114.395 52.9548 112.971 53.3701C111.547 53.7853 109.803 53.9943 107.743 53.9943C105.55 53.9943 103.599 53.593 101.888 52.7932C100.18 51.9933 98.8364 50.7699 97.861 49.1256C96.8856 47.4813 96.3979 45.3995 96.3979 42.8773C96.3979 39.1289 97.7969 36.3113 100.592 34.4246C103.387 32.5406 107.612 31.4983 113.27 31.3004L119.551 31.0691V29.1629C119.551 26.663 118.969 24.8766 117.807 23.8036C116.644 22.7306 115 22.1928 112.874 22.1928C111.054 22.1928 109.29 22.4547 107.579 22.9815C106.258 23.3883 104.965 23.8593 103.697 24.3972C103.07 24.662 102.351 24.4 102.064 23.7813L100.564 20.5485C100.277 19.927 100.525 19.1745 101.147 18.8875C102.663 18.1879 104.327 17.6027 106.146 17.1289C108.42 16.5381 110.781 16.2427 113.236 16.2427ZM119.518 37.2505C119.518 36.5371 118.924 35.9685 118.211 35.9992L114.847 36.1413C110.99 36.2723 108.281 36.9244 106.723 38.0977C105.165 39.271 104.388 40.8874 104.388 42.9498C104.388 44.7473 104.923 46.0572 105.999 46.8793C107.074 47.7015 108.487 48.1139 110.24 48.1139C112.916 48.1139 115.128 47.3531 116.884 45.8287C118.637 44.3042 119.515 42.0747 119.515 39.1373V37.2505H119.518Z" fill="white"/>
<path d="M166.736 18.188V52.0853C166.736 52.7765 166.176 53.3394 165.482 53.3394H161.655C161.067 53.3394 160.56 52.9325 160.432 52.3584L159.565 48.4735H159.169C158.403 49.722 157.425 50.7587 156.243 51.5809C155.059 52.403 153.738 53.0106 152.28 53.4063C150.823 53.802 149.293 53.9999 147.693 53.9999C144.973 53.9999 142.646 53.5345 140.706 52.6009C138.764 51.6701 137.276 50.2292 136.233 48.2756C135.191 46.3247 134.673 43.8026 134.673 40.7119V18.188C134.673 17.4968 135.233 16.9338 135.927 16.9338H141.214C141.905 16.9338 142.468 17.494 142.468 18.188V39.2627C142.468 42.0914 143.042 44.2067 144.193 45.6085C145.344 47.0103 147.136 47.7126 149.569 47.7126C151.915 47.7126 153.771 47.2305 155.142 46.2662C156.513 45.3019 157.494 43.8778 158.085 41.9911C158.679 40.1071 158.971 37.794 158.971 35.0516V18.188C158.971 17.4968 159.532 16.9338 160.226 16.9338H165.479C166.176 16.9338 166.736 17.494 166.736 18.188Z" fill="white"/>
<path d="M199.219 42.9471C199.219 45.3355 198.64 47.3532 197.478 48.9975C196.316 50.6418 194.621 51.8875 192.397 52.7292C190.17 53.5708 187.448 53.9944 184.226 53.9944C181.682 53.9944 179.494 53.8133 177.666 53.451C176.119 53.1444 174.639 52.7041 173.226 52.1244C172.755 51.9321 172.452 51.4583 172.452 50.9483V47.0076C172.452 46.1297 173.329 45.5166 174.146 45.8399C175.442 46.3527 176.832 46.8125 178.321 47.2194C180.481 47.813 182.523 48.1085 184.455 48.1085C186.977 48.1085 188.802 47.7071 189.931 46.9073C191.059 46.1074 191.625 45.0373 191.625 43.7023C191.625 42.9136 191.399 42.2058 190.951 41.5815C190.499 40.9572 189.669 40.3106 188.451 39.6418C187.236 38.9729 185.441 38.1787 183.075 37.2562C180.773 36.3365 178.833 35.4112 177.253 34.4776C175.676 33.5468 174.48 32.432 173.669 31.1389C172.858 29.8458 172.454 28.1792 172.454 26.1391C172.454 22.8952 173.736 20.4343 176.303 18.7566C178.867 17.0789 182.253 16.24 186.464 16.24C188.699 16.24 190.809 16.4657 192.793 16.9144C194.373 17.2739 195.931 17.7589 197.466 18.3776C198.113 18.6367 198.414 19.3948 198.144 20.0386L196.672 23.5557C196.407 24.1883 195.686 24.4781 195.05 24.2273C194.044 23.8316 193.035 23.4776 192.027 23.1683C190.324 22.6443 187.467 22.1873 185.686 22.2375C183.942 22.2876 182.596 22.5914 181.645 23.1516C180.603 23.7647 180.085 24.6314 180.085 25.749C180.085 26.6046 180.336 27.3264 180.84 27.92C181.344 28.5108 182.214 29.1044 183.454 29.6953C184.694 30.2889 186.419 31.0218 188.635 31.8997C190.806 32.733 192.684 33.6053 194.276 34.5138C195.864 35.4252 197.087 36.5372 197.94 37.8526C198.793 39.1652 199.219 40.8625 199.219 42.9471Z" fill="white"/>
<path d="M219.012 16.2427C222.256 16.2427 225.043 16.9115 227.364 18.2493C229.688 19.587 231.475 21.4821 232.723 23.9374C233.972 26.3927 234.599 29.3301 234.599 32.7496V35.6397C234.599 36.3308 234.039 36.8938 233.345 36.8938H211.629C210.874 36.8938 210.308 37.5571 210.381 38.3095C210.662 41.1606 211.582 43.4068 213.14 45.0511C214.949 46.9574 217.485 47.9133 220.754 47.9133C223.078 47.9133 225.165 47.6875 227.018 47.2388C228.337 46.9183 229.685 46.4919 231.065 45.9541C231.879 45.6364 232.757 46.2495 232.757 47.1246V50.7086C232.757 51.2074 232.464 51.67 232.004 51.8679C230.427 52.5507 228.824 53.0635 227.197 53.4035C225.313 53.7993 223.053 53.9971 220.422 53.9971C216.846 53.9971 213.703 53.306 210.983 51.9237C208.263 50.5413 206.148 48.4707 204.634 45.7088C203.124 42.947 202.366 39.5051 202.366 35.3833C202.366 31.306 203.057 27.8419 204.436 24.9908C205.819 22.1398 207.758 19.9716 210.258 18.4806C212.764 16.9896 215.681 16.2427 219.012 16.2427ZM219.012 22.0646C216.579 22.0646 214.611 22.8533 213.109 24.4334C211.863 25.7405 211.044 27.5548 210.651 29.8735C210.52 30.6511 211.1 31.3729 211.889 31.3729H225.684C226.403 31.3729 227.002 30.7681 226.935 30.0547C226.815 28.7671 226.536 27.6022 226.099 26.5571C225.519 25.1636 224.647 24.0684 223.485 23.2685C222.323 22.4631 220.834 22.0646 219.012 22.0646Z" fill="white"/>
<path d="M11.7968 24.23C11.5962 24.2217 11.415 24.2133 11.2367 24.1994L11.2952 23.4162C11.4652 23.4274 11.638 23.4385 11.8135 23.4441C11.978 23.4441 12.1591 23.4385 12.3375 23.4302L12.3737 24.2161C12.1814 24.2272 11.9891 24.23 11.7968 24.23ZM13.494 24.1102L13.3825 23.3326C13.7281 23.2825 14.0765 23.2156 14.4165 23.1348L14.6032 23.8984C14.2381 23.9848 13.8675 24.0572 13.494 24.1102ZM10.1247 24.0767C9.75126 24.021 9.3806 23.9513 9.02388 23.8677L9.20224 23.1013C9.53946 23.1794 9.88781 23.2462 10.2417 23.2992L10.1247 24.0767ZM15.6845 23.5779L15.4281 22.8366C15.7597 22.7223 16.0886 22.5885 16.4035 22.4436L16.7296 23.1571C16.3924 23.3131 16.0384 23.4553 15.6845 23.5779ZM7.93979 23.5667C7.58307 23.4497 7.22635 23.3159 6.88636 23.1682L7.19849 22.4464C7.51898 22.583 7.85061 22.7084 8.18504 22.8171L7.93979 23.5667ZM5.87193 22.6721C5.5403 22.491 5.21702 22.2903 4.91047 22.0785L5.35636 21.432C5.64062 21.6298 5.94161 21.8138 6.24816 21.9838L5.87193 22.6721ZM17.7329 22.6387L17.3399 21.9587C17.6409 21.7831 17.9391 21.5908 18.2261 21.3874L18.6832 22.0256C18.3766 22.2457 18.0561 22.452 17.7329 22.6387ZM4.01588 21.3902C3.73162 21.1449 3.45293 20.8857 3.19654 20.6126L3.76506 20.0719C4.00473 20.3255 4.26112 20.568 4.52588 20.7938L4.01588 21.3902ZM19.5666 21.3316L19.051 20.738C19.3158 20.5095 19.5722 20.2642 19.8119 20.0106L20.3804 20.5541C20.124 20.8244 19.8481 21.0864 19.5666 21.3316ZM2.45802 19.7542C2.2295 19.4588 2.01212 19.1467 1.81147 18.8262L2.47753 18.4109C2.66146 18.7063 2.8649 18.999 3.0767 19.2721L2.45802 19.7542ZM21.1189 19.6985L20.5002 19.2136C20.7176 18.9377 20.9238 18.6478 21.1105 18.3552L21.771 18.7816C21.5732 19.0965 21.353 19.4031 21.1189 19.6985ZM1.26245 17.8424C1.09803 17.508 0.944749 17.1624 0.810979 16.8084L1.54393 16.527C1.66934 16.8558 1.81147 17.1819 1.96474 17.4912L1.26245 17.8424ZM22.3395 17.8062L21.64 17.4467C21.8017 17.1373 21.9466 16.814 22.0776 16.488L22.8077 16.7806C22.6684 17.1262 22.5095 17.4717 22.3395 17.8062ZM0.459834 15.7383C0.359506 15.3788 0.2759 15.0081 0.206228 14.6402L0.978191 14.4981C1.04229 14.8437 1.12032 15.1892 1.21508 15.5265L0.459834 15.7383ZM23.1756 15.7132L22.4204 15.493C22.5179 15.1586 22.6015 14.813 22.6684 14.4702L23.4404 14.6179C23.3707 14.9858 23.2815 15.3537 23.1756 15.7132ZM0.0529505 13.5255C0.0195081 13.1548 0 12.7758 0 12.3995H0.785897C0.785897 12.7507 0.802619 13.1046 0.836061 13.453L0.0529505 13.5255ZM23.5992 13.5004L22.8161 13.4279C22.8495 13.0795 22.8663 12.7256 22.8663 12.3772V12.3299L23.6522 12.3243V12.3772C23.6522 12.7507 23.6354 13.1297 23.5992 13.5004ZM0.833274 11.3433L0.0501637 11.2736C0.0836061 10.9002 0.130983 10.5239 0.197868 10.1588L0.972618 10.2982C0.90852 10.641 0.86393 10.9921 0.833274 11.3433ZM22.8133 11.2736C22.7799 10.9253 22.7269 10.5741 22.66 10.2313L23.432 10.0808C23.5045 10.4487 23.5602 10.8221 23.5964 11.1956L22.8133 11.2736ZM1.20393 9.26703L0.445899 9.05801C0.546227 8.69571 0.663275 8.3362 0.794258 7.98505L1.52999 8.26095C1.40458 8.5926 1.29589 8.92982 1.20393 9.26703ZM22.4092 9.2113C22.3089 8.87686 22.1918 8.54243 22.0609 8.21915L22.7882 7.92374C22.9276 8.2721 23.0558 8.62883 23.1617 8.98834L22.4092 9.2113ZM1.94524 7.29947L1.24016 6.95389C1.40737 6.61667 1.58852 6.28224 1.78638 5.96732L2.45523 6.37978C2.2713 6.6752 2.1013 6.98454 1.94524 7.29947ZM21.6178 7.26324C21.4561 6.95389 21.2778 6.64733 21.0882 6.3547L21.7459 5.92551C21.9494 6.24043 22.1417 6.56651 22.3145 6.89815L21.6178 7.26324ZM3.05162 5.51305L2.42736 5.0337C2.65589 4.7355 2.90392 4.44566 3.16031 4.17254L3.73162 4.71041C3.49195 4.96681 3.26342 5.23714 3.05162 5.51305ZM20.4723 5.49633C20.255 5.22321 20.0209 4.95566 19.7784 4.70205L20.3442 4.1586C20.6033 4.42894 20.8541 4.71599 21.0855 5.00862L20.4723 5.49633ZM4.48965 3.9886L3.97686 3.3922C4.26112 3.14695 4.56211 2.91285 4.86866 2.69826L5.31735 3.34204C5.03309 3.54548 4.7544 3.76007 4.48965 3.9886ZM19.0148 3.98024C18.7501 3.75171 18.4714 3.53433 18.1843 3.33089L18.6386 2.68989C18.9451 2.90727 19.2433 3.13859 19.5276 3.38384L19.0148 3.98024ZM6.20915 2.78744L5.82735 2.10185C6.15341 1.9207 6.49341 1.75349 6.83898 1.60021L7.1539 2.31923C6.83062 2.46137 6.51292 2.62022 6.20915 2.78744ZM17.2981 2.76514C16.9943 2.59235 16.6794 2.43071 16.3617 2.28579L16.685 1.56955C17.0278 1.72283 17.365 1.89841 17.6883 2.08235L17.2981 2.76514ZM8.13766 1.94579L7.89242 1.19889C8.24356 1.08184 8.60585 0.978724 8.97372 0.892329L9.15487 1.65595C8.80651 1.73955 8.46651 1.8371 8.13766 1.94579ZM15.3807 1.89841C15.0519 1.78414 14.7119 1.6866 14.3691 1.60578L14.5502 0.842165C14.9153 0.928559 15.2804 1.03446 15.6343 1.15709L15.3807 1.89841ZM10.1916 1.45807L10.0745 0.680523C10.4368 0.624785 10.8103 0.582981 11.1865 0.552325L11.2478 1.33545C10.8883 1.36332 10.5344 1.40512 10.1916 1.45807ZM13.3352 1.4107C12.9896 1.36332 12.6357 1.32988 12.2873 1.31594L12.3208 0.530029C12.6942 0.546751 13.0732 0.580194 13.4439 0.633145L13.3352 1.4107Z" fill="white"/>
<path d="M28.8803 6.93159C41.176 6.93159 51.1809 16.9366 51.1809 29.2326C51.1809 41.5285 41.176 51.5335 28.8803 51.5335C16.5847 51.5335 6.57981 41.5285 6.57981 29.2326C6.57981 16.9366 16.5847 6.93159 28.8803 6.93159ZM28.8803 5.24829C15.6344 5.24829 4.89655 15.9863 4.89655 29.2326C4.89655 42.4788 15.6344 53.2168 28.8803 53.2168C42.1263 53.2168 52.8642 42.4788 52.8642 29.2326C52.8642 15.9863 42.1263 5.24829 28.8803 5.24829Z" fill="white"/>
</svg>
