<svg xmlns="http://www.w3.org/2000/svg" width="2332" height="2112" viewBox="0 0 2332 2112" version="1.1"><path d="M 1329.834 446.262 C 1321.853 450.824, 1313.324 459.053, 1310.710 464.713 C 1308.510 469.479, 1308.500 469.755, 1308.500 528 C 1308.500 574.087, 1308.786 587.483, 1309.847 591.132 C 1311.684 597.448, 1322.528 608.655, 1330.606 612.587 C 1336.143 615.281, 1337.273 615.457, 1349.250 615.478 L 1362 615.500 1362 627.250 L 1362 639 1155.965 639 C 961.460 639, 949.778 639.098, 947.215 640.750 C 940.622 644.999, 935.714 653.375, 935.714 660.380 C 935.714 666.149, 936.599 668.272, 941.899 675.221 C 944.298 678.366, 946.668 680.283, 949 680.965 C 951.340 681.650, 1024.703 681.991, 1170.320 681.994 L 1388.140 682 1392.663 678.888 C 1395.151 677.176, 1398.494 673.713, 1400.093 671.192 L 1403 666.608 1403 627.642 L 1403 588.676 1400.472 584.363 C 1399.082 581.990, 1395.867 578.463, 1393.328 576.525 L 1388.712 573 1369.856 573 L 1351 573 1351 529.500 L 1351 486 1443.750 485.864 C 1494.763 485.789, 1543.700 485.743, 1552.500 485.762 L 1568.500 485.796 1568.761 529.398 L 1569.021 573 1549.968 573 L 1530.914 573 1525.822 577.750 C 1516.876 586.095, 1517 585.353, 1517 630.601 L 1517 670.037 1519.624 675.055 C 1522.647 680.836, 1526.908 683.411, 1535.241 684.492 C 1540.178 685.132, 1561.429 689.227, 1576 692.346 C 1583.110 693.868, 1593.743 696.555, 1598.571 698.049 C 1600.260 698.572, 1602.480 699, 1603.505 699 C 1604.530 699, 1607.198 699.852, 1609.434 700.894 C 1614.642 703.321, 1636.191 710, 1638.811 710 C 1641.670 710, 1659.973 716.508, 1665.676 719.553 C 1668.329 720.969, 1673.650 723.502, 1677.500 725.182 C 1690.835 730.999, 1692.971 732.041, 1696.578 734.488 C 1698.571 735.841, 1701.843 737.246, 1703.851 737.611 C 1708.032 738.373, 1720.526 744.344, 1723.500 747.003 C 1724.600 747.986, 1732.132 752.663, 1740.239 757.395 L 1754.978 766 1765.034 766 C 1774.378 766, 1775.265 765.826, 1777.545 763.545 C 1778.895 762.195, 1780 760.576, 1780 759.948 C 1780 758.293, 1790.684 743.383, 1794.868 739.199 C 1801.296 732.771, 1806.936 724.144, 1809.489 716.837 C 1812.550 708.077, 1812.576 706.727, 1809.829 699.339 C 1807.206 692.286, 1806.111 690.922, 1799.855 686.907 C 1797.185 685.194, 1795 683.399, 1795 682.920 C 1795 682.440, 1797.661 678.325, 1800.913 673.774 C 1804.164 669.223, 1807.588 663.587, 1808.521 661.250 C 1810.296 656.802, 1811.914 655.986, 1813.992 658.490 C 1814.672 659.309, 1818.439 662.311, 1822.364 665.160 C 1826.289 668.010, 1831.750 672.489, 1834.500 675.114 C 1837.250 677.739, 1841.651 680.802, 1844.281 681.921 C 1849.423 684.109, 1855.535 688.452, 1863.500 695.578 C 1871.870 703.066, 1877.212 706.867, 1883.656 709.918 C 1887.416 711.698, 1890.069 713.643, 1890.473 714.916 C 1890.837 716.062, 1891.779 717, 1892.567 717 C 1894.666 717, 1894.315 720.405, 1892 722.500 C 1890.900 723.495, 1890 725.083, 1890 726.028 C 1890 728.023, 1882.965 737.962, 1881.538 737.985 C 1881.008 737.993, 1879.600 739.223, 1878.407 740.719 L 1876.239 743.438 1872.316 740.719 C 1870.158 739.223, 1867.830 738, 1867.143 738 C 1866.456 738, 1864.238 736.875, 1862.215 735.500 C 1856.917 731.900, 1850.557 732.105, 1841.975 736.152 C 1836.478 738.744, 1835.073 739.909, 1834.060 742.711 C 1832.407 747.283, 1823.461 759.622, 1815.763 767.949 C 1810.478 773.665, 1809.126 775.909, 1807.108 782.317 C 1804.678 790.032, 1804.635 798.035, 1807.010 800.410 C 1807.554 800.954, 1808 802.346, 1808 803.502 C 1808 804.925, 1811.111 808.253, 1817.630 813.802 C 1822.926 818.311, 1827.836 822, 1828.541 822 C 1829.246 822, 1831.025 823.462, 1832.495 825.250 C 1837.432 831.252, 1856.343 849.974, 1858 850.500 C 1858.901 850.786, 1860.335 852.478, 1861.184 854.260 C 1862.034 856.042, 1865.389 860.435, 1868.639 864.021 C 1871.890 867.608, 1875.829 872.220, 1877.393 874.271 C 1878.958 876.322, 1880.821 878, 1881.534 878 C 1882.906 878, 1890 887.047, 1890 888.797 C 1890 890.195, 1901.493 905.611, 1903.317 906.661 C 1905.654 908.006, 1917.716 926.432, 1918.452 929.780 C 1918.820 931.459, 1919.667 933.042, 1920.333 933.298 C 1920.999 933.553, 1924.403 938.653, 1927.898 944.631 C 1931.393 950.609, 1935.929 957.975, 1937.977 961 C 1943.100 968.564, 1944.934 972.325, 1946.578 978.639 C 1947.814 983.384, 1950.257 988.470, 1952.035 990 C 1952.745 990.611, 1959 1003.628, 1959 1004.494 C 1959 1004.835, 1961.079 1009.475, 1963.620 1014.805 C 1969.256 1026.627, 1974 1038.779, 1974 1041.394 C 1974 1043.918, 1982.907 1072.210, 1984.092 1073.450 C 1984.591 1073.973, 1985 1075.660, 1985 1077.200 C 1985 1078.740, 1985.450 1080, 1986 1080 C 1986.550 1080, 1987 1081.356, 1987 1083.014 C 1987 1084.671, 1987.417 1086.809, 1987.926 1087.764 C 1990.085 1091.814, 1998.213 1130.736, 2000.401 1147.500 C 2003.227 1169.152, 2004.250 1221.865, 2002.682 1265 C 2001.866 1287.428, 1999.608 1307.027, 1996.056 1322.500 C 1995.046 1326.900, 1993.439 1334.325, 1992.484 1339 C 1991.530 1343.675, 1989.966 1349.975, 1989.008 1353 C 1988.051 1356.025, 1986.766 1360.300, 1986.153 1362.500 C 1983.292 1372.760, 1981.876 1377.198, 1978.533 1386.379 C 1976.555 1391.813, 1974.542 1398.788, 1974.059 1401.879 C 1973.032 1408.455, 1968.215 1420.704, 1960.050 1437.500 C 1950.349 1457.455, 1946.208 1466.377, 1945.464 1468.923 C 1944.463 1472.345, 1935.277 1489.065, 1933.068 1491.484 C 1929.992 1494.852, 1918 1515.112, 1918 1516.940 C 1918 1517.881, 1916.847 1519.735, 1915.438 1521.059 C 1914.028 1522.383, 1911.905 1525.049, 1910.720 1526.983 C 1906.446 1533.960, 1896.089 1547.526, 1894.126 1548.721 C 1893.022 1549.393, 1891.258 1551.868, 1890.205 1554.221 C 1888.318 1558.442, 1874.428 1576, 1872.977 1576 C 1871.700 1576, 1863.949 1584.343, 1862.293 1587.500 C 1860 1591.873, 1849.035 1604, 1847.375 1604 C 1845.528 1604, 1837.214 1611.644, 1834.866 1615.500 C 1832.654 1619.133, 1818.049 1631.996, 1816.134 1631.998 C 1815.382 1631.999, 1811.782 1635.037, 1808.133 1638.750 C 1800.829 1646.181, 1788.785 1655.388, 1766.885 1670.283 C 1758.973 1675.664, 1750.599 1681.591, 1748.275 1683.455 C 1745.951 1685.319, 1741.676 1687.539, 1738.775 1688.388 C 1735.874 1689.237, 1729.735 1692.445, 1725.133 1695.516 C 1720.532 1698.586, 1712.432 1703.338, 1707.133 1706.074 C 1701.835 1708.811, 1695.517 1712.164, 1693.093 1713.525 C 1690.669 1714.886, 1687.436 1716, 1685.909 1716 C 1682.933 1716, 1672.113 1720.268, 1668 1723.064 C 1666.625 1723.999, 1663.408 1725.471, 1660.852 1726.335 C 1658.296 1727.200, 1651.546 1729.774, 1645.852 1732.056 C 1630.299 1738.289, 1612.317 1743.998, 1608.177 1744.017 C 1606.155 1744.027, 1601.350 1744.859, 1597.500 1745.867 C 1593.650 1746.876, 1587.350 1748.467, 1583.500 1749.403 C 1579.650 1750.338, 1574.873 1751.531, 1572.884 1752.052 C 1570.895 1752.573, 1568.083 1753, 1566.634 1753 C 1565.185 1753, 1564 1753.405, 1564 1753.899 C 1564 1754.394, 1562.088 1755.048, 1559.750 1755.354 C 1557.412 1755.659, 1552.463 1756.379, 1548.750 1756.954 C 1516.242 1761.990, 1491.571 1763.998, 1462.192 1763.999 C 1447.722 1764, 1431.522 1763.511, 1426.192 1762.913 C 1414.841 1761.641, 1387.121 1758.099, 1378.500 1756.820 C 1375.200 1756.331, 1370.025 1755.562, 1367 1755.112 C 1363.975 1754.662, 1361.950 1754.172, 1362.500 1754.022 C 1363.050 1753.872, 1361.700 1753.398, 1359.500 1752.968 C 1349.342 1750.984, 1336.454 1747.891, 1332.189 1746.413 C 1329.610 1745.520, 1324.575 1744.580, 1321 1744.325 C 1314.777 1743.881, 1286.875 1735.151, 1279.500 1731.340 C 1277.850 1730.488, 1273.350 1728.665, 1269.500 1727.290 C 1265.650 1725.914, 1262.072 1724.387, 1261.550 1723.895 C 1261.027 1723.403, 1259.602 1723, 1258.383 1723 C 1257.164 1723, 1256.016 1722.662, 1255.831 1722.250 C 1255.153 1720.732, 1244.913 1715.999, 1242.249 1715.973 C 1238.296 1715.934, 1199.467 1695.634, 1194.500 1691.010 C 1193.400 1689.986, 1191.150 1688.839, 1189.500 1688.462 C 1187.850 1688.085, 1183.526 1686.013, 1179.892 1683.859 C 1176.257 1681.704, 1171.760 1679.505, 1169.898 1678.971 C 1165.225 1677.631, 981.719 1677.673, 976.886 1679.015 C 974.618 1679.645, 971.414 1681.984, 968.282 1685.296 C 964.285 1689.522, 963.152 1691.500, 962.592 1695.232 C 961.334 1703.624, 965.266 1712.488, 972.003 1716.446 C 975.446 1718.468, 976.945 1718.508, 1068.517 1719 L 1161.534 1719.500 1167.517 1724.102 C 1170.808 1726.633, 1177.100 1730.636, 1181.500 1732.997 C 1185.900 1735.358, 1191.362 1738.561, 1193.637 1740.115 C 1195.913 1741.669, 1199.875 1743.412, 1202.443 1743.987 C 1206.404 1744.875, 1218.959 1750.701, 1224 1753.991 C 1225.669 1755.080, 1238.779 1761, 1239.522 1761 C 1239.782 1761, 1242.808 1762.315, 1246.247 1763.922 C 1258.023 1769.424, 1265.347 1772, 1269.212 1772 C 1271.339 1772, 1274.749 1772.845, 1276.790 1773.877 C 1278.830 1774.909, 1284.550 1776.957, 1289.500 1778.428 C 1294.450 1779.899, 1302.550 1782.399, 1307.500 1783.985 C 1312.450 1785.570, 1318.300 1787.311, 1320.500 1787.855 C 1322.700 1788.399, 1326.975 1789.579, 1330 1790.477 C 1343.487 1794.480, 1370.880 1799.228, 1385.500 1800.096 C 1393.750 1800.586, 1404.325 1801.415, 1409 1801.938 C 1413.675 1802.462, 1427.962 1803.418, 1440.750 1804.063 C 1464.125 1805.242, 1497.256 1804.336, 1519 1801.922 C 1523.675 1801.403, 1533.800 1800.594, 1541.500 1800.124 C 1556.572 1799.204, 1572.770 1796.558, 1588.586 1792.432 C 1594.039 1791.010, 1601.200 1789.202, 1604.500 1788.413 C 1607.800 1787.625, 1611.400 1786.578, 1612.500 1786.087 C 1613.600 1785.595, 1618.924 1783.988, 1624.331 1782.514 C 1629.738 1781.041, 1638.914 1778.072, 1644.722 1775.918 C 1650.715 1773.694, 1657.071 1772, 1659.419 1772 C 1661.694 1772, 1664.443 1771.406, 1665.527 1770.679 C 1666.612 1769.953, 1671.325 1767.876, 1676 1766.064 C 1680.675 1764.252, 1692.600 1758.825, 1702.500 1754.004 C 1712.400 1749.183, 1721.625 1744.902, 1723 1744.491 C 1727.160 1743.248, 1749.040 1731.837, 1751.935 1729.401 C 1756.703 1725.389, 1770.968 1716.956, 1774.019 1716.346 C 1775.643 1716.021, 1777.990 1714.765, 1779.236 1713.553 C 1780.481 1712.342, 1786.395 1708.039, 1792.378 1703.991 C 1798.361 1699.944, 1805.226 1694.690, 1807.634 1692.316 C 1810.041 1689.942, 1812.718 1688, 1813.580 1688 C 1815.910 1688, 1829.498 1677.449, 1833.572 1672.477 C 1837.365 1667.848, 1847.137 1660, 1849.108 1660 C 1849.764 1660, 1856.485 1653.813, 1864.042 1646.250 C 1871.600 1638.688, 1880.127 1630.482, 1882.991 1628.016 C 1885.855 1625.549, 1889.113 1621.739, 1890.230 1619.549 C 1891.348 1617.359, 1897.535 1610.371, 1903.979 1604.021 C 1912.028 1596.090, 1916.345 1591.008, 1917.768 1587.791 C 1918.908 1585.215, 1921.826 1581.121, 1924.254 1578.693 C 1930.874 1572.074, 1942.837 1556.091, 1946.534 1548.927 C 1948.269 1545.566, 1961.554 1525.362, 1968.514 1515.500 C 1970.455 1512.750, 1972.895 1507.667, 1973.938 1504.204 C 1974.980 1500.741, 1977.006 1496.370, 1978.440 1494.490 C 1983.291 1488.130, 2002 1449.836, 2002 1446.267 C 2002 1444.433, 2003.145 1440.674, 2004.545 1437.912 C 2007.791 1431.505, 2019.674 1400.229, 2021.607 1393 C 2023.516 1385.866, 2025.231 1380.762, 2026.156 1379.461 C 2027.473 1377.609, 2029.145 1369.692, 2029.949 1361.500 C 2030.381 1357.100, 2031.448 1350.800, 2032.320 1347.500 C 2036.111 1333.155, 2041.611 1301.411, 2043.927 1280.500 C 2048.027 1243.491, 2047.608 1187.564, 2042.990 1155.500 C 2042.356 1151.100, 2041.466 1144.800, 2041.012 1141.500 C 2039.802 1132.704, 2034.451 1105.741, 2032.082 1096.500 C 2030.954 1092.100, 2030.024 1086.123, 2030.015 1083.218 C 2030.007 1080.314, 2029.134 1075.364, 2028.076 1072.218 C 2027.019 1069.073, 2025.242 1063.018, 2024.129 1058.761 C 2023.015 1054.505, 2021.443 1049.555, 2020.635 1047.761 C 2019.826 1045.968, 2018.166 1041.575, 2016.945 1038 C 2014.514 1030.881, 2011.144 1022.196, 2005.604 1008.764 C 2003.622 1003.960, 2002 998.889, 2002 997.496 C 2002 994.811, 1989.745 969.561, 1979.918 952 C 1976.687 946.225, 1974.033 940.664, 1974.021 939.642 C 1974.010 938.620, 1971.862 934.506, 1969.250 930.500 C 1966.638 926.494, 1962.114 919.455, 1959.197 914.858 C 1956.281 910.261, 1952.121 904.250, 1949.952 901.500 C 1947.784 898.750, 1946.008 895.600, 1946.005 894.500 C 1945.999 892.466, 1942.045 887.088, 1927.192 868.917 C 1922.623 863.326, 1918.187 857.008, 1917.334 854.876 C 1916.481 852.744, 1915.181 851, 1914.446 851 C 1913.292 851, 1904.055 840.965, 1892.022 826.640 C 1887.549 821.316, 1859.867 794.060, 1856.538 791.703 C 1853.428 789.502, 1853.396 788.811, 1856.250 785.507 L 1858.500 782.903 1861.843 785.377 C 1863.929 786.920, 1867.718 788.278, 1871.917 788.986 C 1885.152 791.218, 1896.837 785.996, 1907.035 773.290 C 1910.033 769.556, 1913.315 765.885, 1914.328 765.133 C 1915.342 764.382, 1917.019 761.789, 1918.055 759.371 C 1919.965 754.916, 1928.468 742.889, 1933.434 737.617 C 1936.741 734.107, 1937.873 731.398, 1939.488 723.128 C 1941.240 714.155, 1939.620 707.235, 1933.487 697.500 C 1930.963 693.493, 1927.020 690.137, 1913.628 680.601 C 1904.438 674.057, 1894.323 666.386, 1891.150 663.555 C 1883.898 657.085, 1879.586 654, 1877.793 654 C 1876 654, 1868.774 648.855, 1863 643.468 C 1855.994 636.931, 1840.895 626, 1838.872 626 C 1837.869 626, 1835.660 624.474, 1833.963 622.609 C 1832.266 620.744, 1828.092 617.931, 1824.688 616.359 C 1816.074 612.379, 1805.067 612.281, 1797 616.112 C 1789.524 619.663, 1781.477 626.470, 1778.908 631.414 C 1776.414 636.217, 1763.934 653, 1762.858 653 C 1762.450 653, 1760.065 655.666, 1757.557 658.925 C 1753.551 664.132, 1752.774 665.989, 1751.153 674.229 C 1749.883 680.684, 1749.535 685.149, 1750.037 688.554 C 1752.216 703.347, 1754.334 708.544, 1758.623 709.620 C 1761.252 710.280, 1761.651 712.559, 1759.608 715.250 C 1757.818 717.608, 1754.723 717.457, 1752.407 714.898 C 1749.957 712.190, 1745.722 710.012, 1742.800 709.956 C 1741.535 709.931, 1736.675 707.685, 1732 704.964 C 1727.325 702.242, 1718.325 697.518, 1712 694.465 C 1705.675 691.413, 1699.600 688.387, 1698.500 687.741 C 1691.995 683.925, 1687.271 682, 1684.410 682 C 1682.621 682, 1677.410 680.379, 1672.829 678.398 C 1661.314 673.419, 1648.845 668.864, 1646.750 668.870 C 1645.787 668.873, 1645 668.454, 1645 667.938 C 1645 667.422, 1643.875 667, 1642.500 667 C 1641.125 667, 1640 666.602, 1640 666.117 C 1640 665.631, 1638.987 665.010, 1637.750 664.738 C 1636.513 664.466, 1627.625 661.939, 1618 659.123 C 1606.161 655.660, 1598.688 654.003, 1594.899 654.002 C 1591.819 654.001, 1587.994 653.558, 1586.399 653.018 C 1584.805 652.477, 1577.650 650.975, 1570.500 649.678 L 1557.500 647.321 1557.500 630.708 L 1557.500 614.094 1560 614.797 C 1561.375 615.184, 1567.312 615.422, 1573.194 615.328 C 1582.899 615.171, 1584.489 614.869, 1590.385 612.055 C 1595.112 609.799, 1598.501 607.161, 1602.823 602.371 C 1612.383 591.779, 1612 594.851, 1612 528.860 C 1612 474.530, 1611.909 471.692, 1610.002 466.265 C 1606.988 457.690, 1596.015 447.638, 1585.929 444.213 C 1583.206 443.288, 1553.042 443.003, 1458.929 443.012 L 1335.500 443.024 1329.834 446.262 M 747.250 937.750 C 818.612 937.892, 935.387 937.892, 1006.750 937.750 C 1078.112 937.608, 1019.725 937.492, 877 937.492 C 734.275 937.492, 675.887 937.608, 747.250 937.750 M 1676.500 956.209 C 1671.858 957.454, 1661.431 967.631, 1624.993 1006.481 C 1612.622 1019.671, 1598.142 1034.971, 1592.817 1040.481 C 1587.491 1045.992, 1578.538 1055.450, 1572.920 1061.500 C 1567.303 1067.550, 1561.658 1073.072, 1560.375 1073.771 C 1559.092 1074.470, 1557.470 1076.108, 1556.771 1077.412 C 1554.788 1081.109, 1537.146 1099.747, 1533.491 1102.006 C 1531.688 1103.120, 1529.511 1105.487, 1528.654 1107.266 C 1526.198 1112.361, 1504.330 1134, 1501.636 1134 C 1501.098 1134, 1499.861 1133.279, 1498.887 1132.397 C 1495.359 1129.205, 1467.882 1127.663, 1451.283 1129.726 C 1443.553 1130.687, 1440.632 1131.613, 1433.176 1135.463 C 1425.202 1139.582, 1423.136 1141.299, 1413.137 1152.118 C 1400.902 1165.356, 1396.722 1172.435, 1393.132 1186 C 1389.136 1201.095, 1390.027 1216.680, 1395.739 1231.595 C 1397.830 1237.054, 1410.018 1254.874, 1414.484 1259 C 1415.972 1260.375, 1417.792 1262.657, 1418.529 1264.072 C 1419.399 1265.743, 1421.346 1267.087, 1424.092 1267.910 C 1426.416 1268.606, 1429.934 1270.186, 1431.909 1271.422 C 1435.165 1273.459, 1444.013 1277.033, 1452.899 1279.903 C 1454.769 1280.506, 1461.214 1281, 1467.222 1281 C 1481.532 1281, 1492.845 1278.318, 1503 1272.520 C 1507.125 1270.164, 1511.626 1267.978, 1513.002 1267.662 C 1515.928 1266.989, 1527 1257.428, 1527 1255.573 C 1527 1254.876, 1529.362 1250.725, 1532.250 1246.348 C 1538.747 1236.500, 1541.316 1232, 1540.442 1232 C 1540.072 1232, 1540.404 1230.987, 1541.180 1229.750 C 1544.076 1225.129, 1545.438 1216.605, 1545.377 1203.500 C 1545.309 1188.853, 1544.171 1184.305, 1536.906 1169.655 C 1534.259 1164.317, 1534.431 1163.604, 1539.250 1159.913 C 1546.484 1154.372, 1552.048 1148.715, 1555.474 1143.419 C 1557.281 1140.624, 1561.385 1136.124, 1564.594 1133.419 C 1573.048 1126.292, 1580.666 1118.237, 1584.443 1112.434 C 1586.256 1109.647, 1589.202 1106.272, 1590.989 1104.934 C 1597.373 1100.153, 1610.859 1086.754, 1611.958 1084.102 C 1612.573 1082.617, 1618.452 1076.336, 1625.022 1070.144 C 1631.593 1063.952, 1638.521 1056.549, 1640.419 1053.693 C 1642.316 1050.837, 1645.230 1047.698, 1646.895 1046.717 C 1650.318 1044.699, 1666.613 1027.398, 1668.358 1023.928 C 1668.986 1022.679, 1672.117 1019.596, 1675.316 1017.078 C 1681.854 1011.932, 1696 996.433, 1696 994.417 C 1696 993.693, 1697.567 991.907, 1699.482 990.446 C 1704.686 986.477, 1706.470 977.637, 1703.839 968.856 C 1702.375 963.971, 1693.180 956, 1689.010 956 C 1687.492 956, 1684.956 955.805, 1683.375 955.568 C 1681.794 955.330, 1678.700 955.618, 1676.500 956.209 M 1459.945 1172.450 C 1453.012 1175.005, 1448.007 1178.061, 1446.335 1180.763 C 1445.402 1182.268, 1443.414 1184.850, 1441.916 1186.500 C 1438.768 1189.967, 1436.104 1197.239, 1435.545 1203.896 C 1435.095 1209.241, 1437.337 1215.310, 1443.066 1224.259 C 1449.349 1234.073, 1456.315 1237.930, 1468.162 1238.155 C 1474.320 1238.272, 1476.463 1237.839, 1481.479 1235.467 C 1487.964 1232.399, 1495.741 1225.316, 1498.568 1219.902 C 1500.006 1217.149, 1500.336 1214.098, 1500.296 1203.914 C 1500.266 1196.308, 1499.783 1190.463, 1499.075 1189.141 C 1497.707 1186.583, 1490.026 1179.302, 1485.932 1176.680 C 1477.871 1171.519, 1467.192 1169.781, 1459.945 1172.450" stroke="none" fill="#120c39" fill-rule="evenodd"/><path d="M 1349.184 439.126 C 1336.334 439.790, 1335.575 439.954, 1327.485 443.836 C 1313.306 450.640, 1308.916 456.771, 1304.814 475.500 C 1303.148 483.108, 1303.415 569.697, 1305.138 580.461 C 1306.086 586.388, 1309.607 595.726, 1310.541 594.792 C 1310.703 594.630, 1310.186 592.023, 1309.391 588.999 C 1308.195 584.449, 1307.993 573.668, 1308.223 526.500 C 1308.497 470.093, 1308.523 469.450, 1310.710 464.713 C 1313.324 459.053, 1321.853 450.824, 1329.834 446.262 L 1335.500 443.024 1458.929 443.012 C 1553.042 443.003, 1583.206 443.288, 1585.929 444.213 C 1596.015 447.638, 1606.988 457.690, 1610.002 466.265 C 1611.909 471.692, 1612 474.530, 1612 528.860 C 1612 594.822, 1612.378 591.785, 1602.859 602.332 C 1596.185 609.726, 1588.498 614.117, 1580.500 615.102 L 1575.500 615.718 1580.349 615.859 C 1583.016 615.937, 1586.616 615.367, 1588.349 614.594 C 1590.082 613.820, 1592.729 612.914, 1594.232 612.579 C 1598.097 611.719, 1603.219 606.908, 1605.975 601.549 C 1607.270 599.032, 1608.930 596.473, 1609.664 595.864 C 1610.399 595.254, 1611 594, 1611 593.078 C 1611 592.155, 1611.563 590.838, 1612.250 590.151 C 1613.222 589.179, 1613.500 575.613, 1613.500 529.124 L 1613.500 469.347 1610.611 463.635 C 1607.121 456.734, 1596.745 446.855, 1589.525 443.559 C 1578.461 438.508, 1580.667 438.600, 1468 438.517 C 1409.975 438.474, 1356.508 438.748, 1349.184 439.126 M 1443.750 485.755 L 1351 486.010 1351 529.505 L 1351 573 1369.856 573 L 1388.712 573 1393.328 576.525 C 1395.867 578.463, 1399.082 581.990, 1400.472 584.363 L 1403 588.676 1403 627.642 L 1403 666.608 1400.053 671.255 C 1398.433 673.810, 1395.283 677.108, 1393.053 678.583 C 1390.824 680.059, 1389 681.369, 1389 681.494 C 1389 681.620, 1390.126 681.507, 1391.502 681.244 C 1394.664 680.640, 1400.178 675.560, 1402.623 671 C 1404.366 667.750, 1404.500 664.746, 1404.500 629 C 1404.500 593.410, 1404.354 590.106, 1402.567 585.291 C 1400.424 579.515, 1397.975 576.292, 1393.545 573.417 C 1390.991 571.760, 1388.280 571.453, 1373.545 571.152 C 1363.041 570.937, 1355.980 570.378, 1355.146 569.693 C 1354.039 568.785, 1353.856 561.610, 1354.146 530.327 C 1354.471 495.216, 1354.647 491.924, 1356.285 490.286 C 1357.972 488.599, 1363.685 488.485, 1459.813 488.227 C 1547.165 487.993, 1561.834 488.158, 1563.528 489.397 C 1565.433 490.790, 1565.500 492.185, 1565.510 530.461 C 1565.520 569.351, 1565.483 570.090, 1563.510 570.490 C 1562.405 570.715, 1554.488 571.071, 1545.919 571.281 C 1531.691 571.631, 1529.953 571.876, 1525.919 574.095 C 1519.814 577.454, 1516.447 583.934, 1515.060 594.993 C 1513.632 606.379, 1513.674 663.381, 1515.115 670.100 C 1515.982 674.141, 1517.193 676.234, 1520.557 679.504 C 1526.461 685.242, 1525.231 684.874, 1556 690.100 C 1559.025 690.613, 1564.378 691.739, 1567.897 692.600 C 1571.415 693.462, 1576.365 694.553, 1578.897 695.026 C 1584.488 696.069, 1598.557 699.627, 1602 700.867 C 1603.375 701.363, 1606.525 702.322, 1609 703 C 1611.475 703.678, 1614.625 704.595, 1616 705.038 C 1621.707 706.877, 1635.844 710.919, 1640.500 712.042 C 1650.232 714.389, 1656.123 716.605, 1670 723.140 C 1674.675 725.342, 1680.300 727.948, 1682.500 728.931 C 1689.854 732.218, 1693.460 733.977, 1699 736.978 C 1702.025 738.616, 1705.334 739.966, 1706.354 739.978 C 1708.584 740.004, 1721.302 746.470, 1725.500 749.713 C 1730.117 753.279, 1730.302 753.401, 1733.500 754.997 C 1735.150 755.820, 1738.579 757.958, 1741.119 759.747 C 1743.660 761.536, 1746.032 763, 1746.389 763 C 1746.747 763, 1748.943 764.223, 1751.270 765.717 C 1755.114 768.186, 1756.383 768.437, 1765.179 768.467 C 1774.589 768.499, 1774.946 768.417, 1777.999 765.500 C 1779.726 763.850, 1781.865 760.925, 1782.753 759 C 1785.139 753.825, 1789.845 747.089, 1794.630 742 C 1802.050 734.109, 1808.814 724.403, 1810.024 719.913 C 1810.668 717.518, 1811.827 714.657, 1812.598 713.557 C 1814.567 710.745, 1814.341 704.740, 1812.099 700.281 C 1811.053 698.201, 1809.479 694.922, 1808.600 692.994 C 1807.618 690.837, 1805.271 688.441, 1802.502 686.768 C 1800.026 685.273, 1798 683.377, 1798 682.555 C 1798 680.255, 1801.812 673.887, 1805.516 670 C 1807.483 667.935, 1809.132 664.962, 1809.537 662.750 C 1809.914 660.688, 1810.513 659, 1810.868 659 C 1811.224 659, 1813.921 660.975, 1816.863 663.388 C 1819.805 665.801, 1823.402 668.372, 1824.856 669.102 C 1826.310 669.831, 1828.737 671.262, 1830.250 672.282 C 1831.763 673.302, 1833 673.903, 1833 673.617 C 1833 673.332, 1828.775 669.964, 1823.611 666.134 C 1818.447 662.303, 1813.921 658.681, 1813.552 658.085 C 1812.179 655.862, 1810.166 657.128, 1808.521 661.250 C 1807.588 663.587, 1804.164 669.223, 1800.913 673.774 C 1797.661 678.325, 1795 682.440, 1795 682.920 C 1795 683.399, 1797.185 685.194, 1799.855 686.907 C 1806.111 690.922, 1807.206 692.286, 1809.829 699.339 C 1812.576 706.727, 1812.550 708.077, 1809.489 716.837 C 1806.936 724.144, 1801.296 732.771, 1794.868 739.199 C 1790.684 743.383, 1780 758.293, 1780 759.948 C 1780 760.576, 1778.895 762.195, 1777.545 763.545 C 1775.265 765.826, 1774.378 766, 1765.034 766 L 1754.978 766 1740.239 757.395 C 1732.132 752.663, 1724.600 747.986, 1723.500 747.003 C 1720.526 744.344, 1708.032 738.373, 1703.851 737.611 C 1701.843 737.246, 1698.571 735.841, 1696.578 734.488 C 1692.971 732.041, 1690.835 730.999, 1677.500 725.182 C 1673.650 723.502, 1668.329 720.969, 1665.676 719.553 C 1659.973 716.508, 1641.670 710, 1638.811 710 C 1636.191 710, 1614.642 703.321, 1609.434 700.894 C 1607.198 699.852, 1604.530 699, 1603.505 699 C 1602.480 699, 1600.260 698.572, 1598.571 698.049 C 1593.743 696.555, 1583.110 693.868, 1576 692.346 C 1561.429 689.227, 1540.178 685.132, 1535.241 684.492 C 1526.908 683.411, 1522.647 680.836, 1519.624 675.055 L 1517 670.037 1517 630.601 C 1517 585.353, 1516.876 586.095, 1525.822 577.750 L 1530.914 573 1549.968 573 L 1569.021 573 1568.761 529.412 L 1568.500 485.823 1552.500 485.662 C 1543.700 485.573, 1494.763 485.615, 1443.750 485.755 M 1794.659 614.494 C 1786.866 618.559, 1779.739 626.174, 1768.542 642.403 C 1765.264 647.152, 1760.512 652.785, 1757.980 654.920 C 1754.138 658.159, 1753.079 659.851, 1751.576 665.151 C 1750.585 668.643, 1749.263 672.850, 1748.637 674.500 C 1746.794 679.362, 1747.181 693.101, 1749.250 696.259 C 1750.213 697.728, 1751 700.580, 1751 702.597 C 1751 705.486, 1751.736 706.958, 1754.470 709.536 C 1757.236 712.145, 1757.623 712.931, 1756.379 713.408 C 1755.521 713.737, 1753.622 713.169, 1752.159 712.144 C 1748.794 709.787, 1743.736 707.591, 1738.091 706.038 C 1735.666 705.371, 1731.963 703.739, 1729.861 702.412 C 1727.759 701.086, 1725.763 700, 1725.424 700 C 1725.086 700, 1723.551 699.104, 1722.014 698.010 C 1716.351 693.978, 1691.229 682.254, 1682.500 679.570 C 1677.550 678.048, 1668.550 674.843, 1662.500 672.449 C 1656.450 670.054, 1648.350 667.101, 1644.500 665.886 C 1640.650 664.670, 1636.600 663.347, 1635.500 662.944 C 1618.402 656.684, 1590.540 650.069, 1581.057 650.018 C 1576.719 649.995, 1561.499 645.306, 1560.035 643.542 C 1559.331 642.694, 1559.039 637.635, 1559.219 629.404 C 1559.498 616.686, 1559.519 616.582, 1562 615.893 C 1564.264 615.265, 1564.295 615.190, 1562.332 615.100 C 1561.139 615.045, 1559.564 614.772, 1558.832 614.492 C 1557.756 614.082, 1557.500 617.185, 1557.500 630.653 L 1557.500 647.321 1570.500 649.678 C 1577.650 650.975, 1584.805 652.477, 1586.399 653.018 C 1587.994 653.558, 1591.819 654.001, 1594.899 654.002 C 1598.688 654.003, 1606.161 655.660, 1618 659.123 C 1627.625 661.939, 1636.513 664.466, 1637.750 664.738 C 1638.987 665.010, 1640 665.631, 1640 666.117 C 1640 666.602, 1641.125 667, 1642.500 667 C 1643.875 667, 1645 667.422, 1645 667.938 C 1645 668.454, 1645.787 668.873, 1646.750 668.870 C 1648.845 668.864, 1661.314 673.419, 1672.829 678.398 C 1677.410 680.379, 1682.621 682, 1684.410 682 C 1687.271 682, 1691.995 683.925, 1698.500 687.741 C 1699.600 688.387, 1705.675 691.413, 1712 694.465 C 1718.325 697.518, 1727.325 702.242, 1732 704.964 C 1736.675 707.685, 1741.535 709.931, 1742.800 709.956 C 1745.722 710.012, 1749.957 712.190, 1752.407 714.898 C 1754.723 717.457, 1757.818 717.608, 1759.608 715.250 C 1761.651 712.559, 1761.252 710.280, 1758.623 709.620 C 1754.334 708.544, 1752.216 703.347, 1750.037 688.554 C 1749.535 685.149, 1749.883 680.684, 1751.153 674.229 C 1752.774 665.989, 1753.551 664.132, 1757.557 658.925 C 1760.065 655.666, 1762.450 653, 1762.858 653 C 1763.927 653, 1776.406 636.232, 1778.877 631.476 C 1780.685 627.994, 1783.542 625.140, 1791.224 619.144 C 1792.173 618.403, 1795.548 616.729, 1798.724 615.422 C 1804.289 613.134, 1804.372 613.047, 1801 613.030 C 1799.075 613.020, 1796.222 613.679, 1794.659 614.494 M 1820.055 614.450 C 1826.580 616.854, 1831.474 619.765, 1834.258 622.897 C 1835.774 624.604, 1837.843 626, 1838.855 626 C 1840.892 626, 1855.969 636.908, 1863 643.468 C 1868.845 648.922, 1876.006 654, 1877.853 654 C 1879.554 654, 1884.107 657.313, 1892.500 664.659 C 1901.165 672.243, 1929.739 692.300, 1924 686.770 C 1918.971 681.924, 1909.733 675, 1908.297 675 C 1907.783 675, 1904.243 672.291, 1900.431 668.980 C 1892.661 662.231, 1879.437 652, 1878.483 652 C 1877.157 652, 1868.649 645.599, 1864.041 641.134 C 1861.381 638.556, 1857.921 635.805, 1856.352 635.021 C 1854.784 634.236, 1851.395 632.134, 1848.822 630.350 C 1846.249 628.566, 1841.974 625.974, 1839.322 624.591 C 1836.670 623.208, 1832.704 620.431, 1830.509 618.421 C 1826.047 614.336, 1823.148 612.966, 1819.185 613.070 C 1816.674 613.136, 1816.731 613.226, 1820.055 614.450 M 1357 615.800 C 1357 616.240, 1357.481 617.081, 1358.070 617.670 C 1359.765 619.365, 1360.250 632.276, 1358.699 634.398 C 1357.441 636.117, 1348.534 636.202, 1154.442 636.348 L 951.500 636.500 946.537 638.788 C 943.807 640.047, 940.723 641.846, 939.684 642.786 C 937.220 645.016, 932 656.566, 932 659.788 C 932 663.417, 936.854 672.579, 941.535 677.785 L 945.570 682.273 953.535 682.573 C 961.192 682.862, 961.268 682.844, 955.500 682.098 C 946.946 680.993, 945.918 680.472, 941.899 675.213 C 936.602 668.279, 935.714 666.151, 935.714 660.380 C 935.714 653.375, 940.622 644.999, 947.215 640.750 C 949.778 639.098, 961.460 639, 1155.965 639 L 1362 639 1362 627 L 1362 615 1359.500 615 C 1358.125 615, 1357 615.360, 1357 615.800 M 1842 681.775 C 1842 682.217, 1844.362 683.819, 1847.250 685.336 C 1850.138 686.854, 1857.675 692.629, 1864 698.170 C 1870.325 703.711, 1877.870 709.371, 1880.766 710.747 C 1883.662 712.123, 1887.133 714.558, 1888.479 716.158 C 1890.622 718.705, 1890.781 719.405, 1889.757 721.783 C 1886.671 728.948, 1877.784 739, 1874.535 739 C 1873.767 739, 1870.223 737.650, 1866.658 736 C 1858.760 732.344, 1857.335 732.184, 1862.215 735.500 C 1864.238 736.875, 1866.456 738, 1867.143 738 C 1867.830 738, 1870.158 739.223, 1872.316 740.719 L 1876.239 743.438 1878.407 740.719 C 1879.600 739.223, 1881.008 737.993, 1881.538 737.985 C 1882.965 737.962, 1890 728.023, 1890 726.028 C 1890 725.083, 1890.900 723.495, 1892 722.500 C 1894.315 720.405, 1894.666 717, 1892.567 717 C 1891.779 717, 1890.837 716.062, 1890.473 714.916 C 1890.069 713.643, 1887.416 711.698, 1883.656 709.918 C 1877.212 706.867, 1871.870 703.066, 1863.500 695.578 C 1853.437 686.575, 1842 679.233, 1842 681.775 M 1069.750 682.750 C 1126.537 682.893, 1219.462 682.893, 1276.250 682.750 C 1333.037 682.607, 1286.575 682.491, 1173 682.491 C 1059.425 682.491, 1012.962 682.607, 1069.750 682.750 M 1934.299 698.750 C 1939.602 707.307, 1941.154 714.598, 1939.488 723.128 C 1937.873 731.398, 1936.741 734.107, 1933.434 737.617 C 1930.101 741.155, 1920.770 753.646, 1919.077 756.836 C 1916.338 761.997, 1918.985 759.531, 1924.538 751.745 C 1927.773 747.210, 1931.705 742.150, 1933.276 740.500 C 1939.034 734.452, 1941.111 728.510, 1941.315 717.500 C 1941.508 707.061, 1940.999 705.391, 1935.181 697.378 C 1932.452 693.619, 1931.773 694.675, 1934.299 698.750 M 1839.712 734.304 C 1836.294 736.373, 1834.873 737.992, 1830.767 744.500 C 1830.073 745.600, 1828.491 747.932, 1827.253 749.683 C 1826.014 751.434, 1825 753.184, 1825 753.572 C 1825 753.960, 1821.737 757.707, 1817.750 761.899 C 1811.108 768.880, 1809.038 771.948, 1806.207 779 C 1805.655 780.375, 1804.483 783.143, 1803.602 785.151 C 1801.397 790.177, 1801.586 793.224, 1804.500 799.594 C 1805.875 802.600, 1807 805.441, 1807 805.909 C 1807 807.382, 1820.433 819.500, 1824.045 821.285 C 1828.843 823.656, 1830.159 824.845, 1833.684 830 C 1835.377 832.475, 1839.178 836.510, 1842.131 838.967 C 1851.464 846.733, 1858.116 853.353, 1861.258 858 C 1862.931 860.475, 1868.620 867.009, 1873.900 872.520 C 1884.526 883.612, 1885.825 885.178, 1887.993 889.514 C 1889.652 892.831, 1900.161 907.103, 1903.813 911 C 1906.944 914.339, 1912.862 923.124, 1916.952 930.500 C 1918.782 933.800, 1923.591 941.523, 1927.640 947.663 C 1931.688 953.802, 1935 959.047, 1935 959.317 C 1935 959.587, 1936.575 962.594, 1938.500 966 C 1940.425 969.406, 1942 972.719, 1942 973.362 C 1942 974.402, 1949.938 990.565, 1954.345 998.500 C 1957.111 1003.480, 1962 1014.954, 1962 1016.466 C 1962 1017.245, 1962.383 1018.119, 1962.852 1018.408 C 1963.320 1018.698, 1964.480 1021.087, 1965.429 1023.717 C 1966.379 1026.348, 1967.539 1029.400, 1968.008 1030.500 C 1968.477 1031.600, 1969.364 1034.300, 1969.978 1036.500 C 1972.155 1044.294, 1976.276 1057.568, 1978.049 1062.500 C 1979.762 1067.263, 1981.415 1072.667, 1983.863 1081.500 C 1984.473 1083.700, 1985.878 1088.387, 1986.986 1091.915 C 1988.094 1095.443, 1989 1098.915, 1989 1099.630 C 1989 1100.345, 1989.614 1102.858, 1990.363 1105.215 C 1991.113 1107.572, 1992.298 1113.325, 1992.996 1118 C 1993.694 1122.675, 1994.612 1127.177, 1995.036 1128.004 C 1995.460 1128.831, 1996.312 1134.006, 1996.930 1139.504 C 1997.548 1145.002, 1998.767 1152.547, 1999.639 1156.270 C 2001.974 1166.238, 2001.098 1284.095, 1998.593 1297 C 1997.686 1301.675, 1996.515 1308.425, 1995.991 1312 C 1995.467 1315.575, 1994.633 1320.300, 1994.139 1322.500 C 1993.644 1324.700, 1992.260 1330.889, 1991.064 1336.252 C 1989.869 1341.616, 1988.008 1348.816, 1986.930 1352.252 C 1985.853 1355.689, 1984.239 1360.975, 1983.344 1364 C 1982.449 1367.025, 1979.743 1375.575, 1977.331 1383 C 1971.046 1402.348, 1971 1402.499, 1970.995 1404.071 C 1970.989 1406.198, 1965.418 1420.386, 1961.010 1429.500 C 1954.816 1442.310, 1948 1457.173, 1948.003 1457.864 C 1948.004 1458.214, 1947.125 1460.300, 1946.048 1462.500 C 1944.972 1464.700, 1942.801 1469.200, 1941.224 1472.500 C 1938.561 1478.070, 1933.538 1487.021, 1930 1492.498 C 1929.175 1493.775, 1926.391 1498.348, 1923.813 1502.660 C 1921.234 1506.972, 1917.409 1513.137, 1915.313 1516.360 C 1913.216 1519.583, 1911.050 1522.939, 1910.500 1523.818 C 1909.950 1524.696, 1908.936 1526.031, 1908.246 1526.783 C 1907.557 1527.535, 1905.562 1530.254, 1903.814 1532.825 C 1897.420 1542.229, 1877.952 1566.714, 1872.248 1572.526 C 1869.023 1575.812, 1864.552 1581.200, 1862.311 1584.500 C 1857.093 1592.185, 1827.065 1621.267, 1813.773 1631.508 C 1812.339 1632.613, 1807.461 1636.888, 1802.933 1641.008 C 1798.405 1645.129, 1793.294 1649.400, 1791.575 1650.500 C 1789.857 1651.600, 1787.747 1652.950, 1786.887 1653.500 C 1786.028 1654.050, 1783.564 1655.761, 1781.412 1657.303 C 1776.168 1661.061, 1771.604 1664.193, 1765 1668.568 C 1761.975 1670.571, 1757.475 1673.891, 1755 1675.944 C 1752.525 1677.997, 1744.875 1682.486, 1738 1685.920 C 1731.125 1689.353, 1724.790 1692.801, 1723.921 1693.581 C 1723.053 1694.362, 1722.009 1695, 1721.601 1695 C 1721.194 1695, 1718.935 1696.324, 1716.583 1697.943 C 1714.230 1699.562, 1708.023 1703.119, 1702.790 1705.849 C 1697.557 1708.578, 1692.426 1711.260, 1691.388 1711.808 C 1690.349 1712.356, 1687.475 1713.358, 1685 1714.033 C 1682.525 1714.709, 1678.592 1716.102, 1676.261 1717.131 C 1673.929 1718.159, 1671.823 1719, 1671.581 1719 C 1671.338 1719, 1668.296 1720.313, 1664.820 1721.917 C 1644.764 1731.174, 1621.482 1738.863, 1599.500 1743.490 C 1595.100 1744.416, 1590.150 1745.577, 1588.500 1746.069 C 1585.885 1746.849, 1571.839 1750.184, 1559.500 1752.955 C 1557.300 1753.449, 1551.450 1754.375, 1546.500 1755.013 C 1541.550 1755.652, 1536.466 1756.585, 1535.203 1757.087 C 1533.940 1757.589, 1530.112 1758, 1526.697 1758 C 1523.282 1758, 1514.866 1758.648, 1507.994 1759.440 C 1480.921 1762.561, 1435.631 1762.099, 1404.743 1758.387 C 1375.588 1754.883, 1368.479 1753.528, 1337 1745.474 C 1333.975 1744.700, 1328.125 1743.565, 1324 1742.951 C 1314.788 1741.579, 1303.946 1738.449, 1289.500 1732.989 C 1283.450 1730.703, 1274.225 1727.223, 1269 1725.256 C 1263.775 1723.289, 1256.205 1720.177, 1252.177 1718.340 C 1248.149 1716.503, 1244.302 1715, 1243.627 1715 C 1242.952 1715, 1241.973 1714.604, 1241.450 1714.121 C 1240.928 1713.637, 1238.700 1712.669, 1236.500 1711.970 C 1232.808 1710.796, 1220.817 1704.852, 1218.500 1703.047 C 1217.950 1702.618, 1215.475 1701.139, 1213 1699.760 C 1210.525 1698.381, 1205.350 1695.389, 1201.500 1693.112 C 1193.674 1688.484, 1177.355 1680.211, 1172 1678.158 C 1165.874 1675.809, 1110.622 1674.760, 1040.972 1675.670 L 977.444 1676.500 972.491 1679.050 C 965.634 1682.579, 959.588 1692.036, 959.694 1699.067 C 959.805 1706.419, 965.571 1714.536, 973.500 1718.500 L 979.500 1721.500 1071.500 1722 C 1124.761 1722.289, 1164.132 1722.887, 1165 1723.420 C 1165.825 1723.926, 1168.525 1725.989, 1171 1728.005 C 1176.641 1732.600, 1200.922 1746, 1203.606 1746 C 1204.378 1746, 1207.342 1747.125, 1210.192 1748.500 C 1213.042 1749.875, 1215.731 1751, 1216.168 1751 C 1216.604 1751, 1219.423 1752.575, 1222.433 1754.500 C 1225.442 1756.425, 1228.157 1758, 1228.466 1758 C 1228.776 1758, 1233.410 1760.064, 1238.764 1762.587 C 1251.762 1768.711, 1251.028 1768.414, 1263.088 1772.453 C 1268.911 1774.404, 1274.655 1776, 1275.851 1776 C 1277.048 1776, 1278.809 1776.402, 1279.764 1776.893 C 1280.719 1777.384, 1285.550 1779.017, 1290.500 1780.521 C 1295.450 1782.025, 1301.975 1784.040, 1305 1784.997 C 1308.025 1785.955, 1314.775 1787.950, 1320 1789.431 C 1325.225 1790.911, 1331.754 1792.777, 1334.509 1793.578 C 1337.263 1794.379, 1343.338 1795.714, 1348.009 1796.546 C 1352.679 1797.377, 1358.750 1798.530, 1361.500 1799.107 C 1364.250 1799.685, 1372.125 1800.532, 1379 1800.990 C 1385.875 1801.448, 1396.900 1802.518, 1403.500 1803.368 C 1410.100 1804.217, 1421.039 1804.932, 1427.808 1804.956 C 1434.578 1804.980, 1444.253 1805.505, 1449.308 1806.122 C 1456.604 1807.012, 1464.997 1806.892, 1490 1805.540 C 1507.325 1804.603, 1523.975 1803.391, 1527 1802.847 C 1530.025 1802.304, 1538.800 1801.483, 1546.500 1801.023 C 1558.878 1800.285, 1577.581 1797.206, 1589.500 1793.944 C 1591.700 1793.342, 1595.300 1792.473, 1597.500 1792.013 C 1599.700 1791.553, 1605.550 1789.971, 1610.500 1788.497 C 1615.450 1787.023, 1622.425 1784.977, 1626 1783.951 C 1629.575 1782.924, 1636.325 1780.782, 1641 1779.190 C 1645.675 1777.598, 1651.975 1775.722, 1655 1775.021 C 1662.752 1773.224, 1664.450 1772.068, 1659.391 1772.030 C 1657.009 1772.013, 1650.845 1773.646, 1644.722 1775.918 C 1638.914 1778.072, 1629.738 1781.041, 1624.331 1782.514 C 1618.924 1783.988, 1613.600 1785.595, 1612.500 1786.087 C 1611.400 1786.578, 1607.800 1787.625, 1604.500 1788.413 C 1601.200 1789.202, 1594.039 1791.010, 1588.586 1792.432 C 1572.770 1796.558, 1556.572 1799.204, 1541.500 1800.124 C 1533.800 1800.594, 1523.675 1801.403, 1519 1801.922 C 1497.256 1804.336, 1464.125 1805.242, 1440.750 1804.063 C 1427.963 1803.418, 1413.675 1802.462, 1409 1801.938 C 1404.325 1801.415, 1393.750 1800.586, 1385.500 1800.096 C 1370.880 1799.228, 1343.487 1794.480, 1330 1790.477 C 1326.975 1789.579, 1322.700 1788.399, 1320.500 1787.855 C 1318.300 1787.311, 1312.450 1785.570, 1307.500 1783.985 C 1302.550 1782.399, 1294.450 1779.899, 1289.500 1778.428 C 1284.550 1776.957, 1278.830 1774.909, 1276.790 1773.877 C 1274.749 1772.845, 1271.339 1772, 1269.212 1772 C 1265.347 1772, 1258.023 1769.424, 1246.247 1763.922 C 1242.808 1762.315, 1239.782 1761, 1239.522 1761 C 1238.779 1761, 1225.669 1755.080, 1224 1753.991 C 1218.959 1750.701, 1206.404 1744.875, 1202.443 1743.987 C 1199.875 1743.412, 1195.913 1741.669, 1193.637 1740.115 C 1191.362 1738.561, 1185.900 1735.358, 1181.500 1732.997 C 1177.100 1730.636, 1170.808 1726.633, 1167.517 1724.102 L 1161.534 1719.500 1068.517 1719 C 976.945 1718.508, 975.446 1718.468, 972.003 1716.446 C 965.266 1712.488, 961.334 1703.624, 962.592 1695.232 C 963.152 1691.500, 964.285 1689.522, 968.282 1685.296 C 971.414 1681.984, 974.618 1679.645, 976.886 1679.015 C 981.719 1677.673, 1165.225 1677.631, 1169.898 1678.971 C 1171.760 1679.505, 1176.257 1681.704, 1179.892 1683.859 C 1183.526 1686.013, 1187.850 1688.085, 1189.500 1688.462 C 1191.150 1688.839, 1193.400 1689.986, 1194.500 1691.010 C 1199.467 1695.634, 1238.296 1715.934, 1242.249 1715.973 C 1244.913 1715.999, 1255.153 1720.732, 1255.831 1722.250 C 1256.016 1722.662, 1257.164 1723, 1258.383 1723 C 1259.602 1723, 1261.027 1723.403, 1261.550 1723.895 C 1262.072 1724.387, 1265.650 1725.914, 1269.500 1727.290 C 1273.350 1728.665, 1277.850 1730.488, 1279.500 1731.340 C 1286.875 1735.151, 1314.777 1743.881, 1321 1744.325 C 1324.575 1744.580, 1329.610 1745.520, 1332.189 1746.413 C 1336.454 1747.891, 1349.342 1750.984, 1359.500 1752.968 C 1361.700 1753.398, 1363.050 1753.872, 1362.500 1754.022 C 1361.950 1754.172, 1363.975 1754.662, 1367 1755.112 C 1370.025 1755.562, 1375.200 1756.331, 1378.500 1756.820 C 1387.121 1758.099, 1414.841 1761.641, 1426.192 1762.913 C 1431.522 1763.511, 1447.722 1764, 1462.192 1763.999 C 1491.571 1763.998, 1516.242 1761.990, 1548.750 1756.954 C 1552.463 1756.379, 1557.412 1755.659, 1559.750 1755.354 C 1562.088 1755.048, 1564 1754.394, 1564 1753.899 C 1564 1753.405, 1565.185 1753, 1566.634 1753 C 1568.083 1753, 1570.895 1752.573, 1572.884 1752.052 C 1574.873 1751.531, 1579.650 1750.338, 1583.500 1749.403 C 1587.350 1748.467, 1593.650 1746.876, 1597.500 1745.867 C 1601.350 1744.859, 1606.155 1744.027, 1608.177 1744.017 C 1612.317 1743.998, 1630.299 1738.289, 1645.852 1732.056 C 1651.546 1729.774, 1658.296 1727.200, 1660.852 1726.335 C 1663.408 1725.471, 1666.625 1723.999, 1668 1723.064 C 1672.113 1720.268, 1682.933 1716, 1685.909 1716 C 1687.436 1716, 1690.669 1714.886, 1693.093 1713.525 C 1695.517 1712.164, 1701.835 1708.811, 1707.133 1706.074 C 1712.432 1703.338, 1720.532 1698.586, 1725.133 1695.516 C 1729.735 1692.445, 1735.874 1689.237, 1738.775 1688.388 C 1741.676 1687.539, 1745.951 1685.319, 1748.275 1683.455 C 1750.599 1681.591, 1758.973 1675.664, 1766.885 1670.283 C 1788.785 1655.388, 1800.829 1646.181, 1808.133 1638.750 C 1811.782 1635.037, 1815.382 1631.999, 1816.134 1631.998 C 1818.049 1631.996, 1832.654 1619.133, 1834.866 1615.500 C 1837.214 1611.644, 1845.528 1604, 1847.375 1604 C 1849.035 1604, 1860 1591.873, 1862.293 1587.500 C 1863.949 1584.343, 1871.700 1576, 1872.977 1576 C 1874.428 1576, 1888.318 1558.442, 1890.205 1554.221 C 1891.258 1551.868, 1893.022 1549.393, 1894.126 1548.721 C 1896.089 1547.526, 1906.446 1533.960, 1910.720 1526.983 C 1911.905 1525.049, 1914.028 1522.383, 1915.438 1521.059 C 1916.847 1519.735, 1918 1517.881, 1918 1516.940 C 1918 1515.112, 1929.992 1494.852, 1933.068 1491.484 C 1935.277 1489.065, 1944.463 1472.345, 1945.464 1468.923 C 1946.208 1466.377, 1950.349 1457.455, 1960.050 1437.500 C 1968.215 1420.704, 1973.032 1408.455, 1974.059 1401.879 C 1974.542 1398.788, 1976.555 1391.813, 1978.533 1386.379 C 1981.876 1377.198, 1983.292 1372.760, 1986.153 1362.500 C 1986.766 1360.300, 1988.051 1356.025, 1989.008 1353 C 1989.966 1349.975, 1991.530 1343.675, 1992.484 1339 C 1993.439 1334.325, 1995.046 1326.900, 1996.056 1322.500 C 1999.608 1307.027, 2001.866 1287.428, 2002.682 1265 C 2004.250 1221.865, 2003.227 1169.152, 2000.401 1147.500 C 1998.213 1130.736, 1990.085 1091.814, 1987.926 1087.764 C 1987.417 1086.809, 1987 1084.671, 1987 1083.014 C 1987 1081.356, 1986.550 1080, 1986 1080 C 1985.450 1080, 1985 1078.740, 1985 1077.200 C 1985 1075.660, 1984.591 1073.973, 1984.092 1073.450 C 1982.907 1072.210, 1974 1043.918, 1974 1041.394 C 1974 1038.779, 1969.256 1026.627, 1963.620 1014.805 C 1961.079 1009.475, 1959 1004.835, 1959 1004.494 C 1959 1003.628, 1952.745 990.611, 1952.035 990 C 1950.257 988.470, 1947.814 983.384, 1946.578 978.639 C 1944.934 972.325, 1943.100 968.564, 1937.977 961 C 1935.929 957.975, 1931.393 950.609, 1927.898 944.631 C 1924.403 938.653, 1920.999 933.553, 1920.333 933.298 C 1919.667 933.042, 1918.820 931.459, 1918.452 929.780 C 1917.716 926.432, 1905.654 908.006, 1903.317 906.661 C 1901.493 905.611, 1890 890.195, 1890 888.797 C 1890 887.047, 1882.906 878, 1881.534 878 C 1880.821 878, 1878.958 876.322, 1877.393 874.271 C 1875.829 872.220, 1871.890 867.608, 1868.639 864.021 C 1865.389 860.435, 1862.034 856.042, 1861.184 854.260 C 1860.335 852.478, 1858.901 850.786, 1858 850.500 C 1856.343 849.974, 1837.432 831.252, 1832.495 825.250 C 1831.025 823.462, 1829.246 822, 1828.541 822 C 1827.836 822, 1822.926 818.311, 1817.630 813.802 C 1811.111 808.253, 1808 804.925, 1808 803.502 C 1808 802.346, 1807.554 800.954, 1807.010 800.410 C 1804.635 798.035, 1804.678 790.032, 1807.108 782.317 C 1809.126 775.909, 1810.478 773.665, 1815.763 767.949 C 1823.435 759.650, 1832.405 747.288, 1834.045 742.752 C 1835.009 740.085, 1836.514 738.774, 1841.286 736.443 C 1844.599 734.824, 1849.827 733.229, 1852.905 732.897 L 1858.500 732.294 1851 732.152 C 1844.788 732.035, 1842.849 732.404, 1839.712 734.304 M 1434.253 762.066 C 1430.817 762.513, 1427.618 763.118, 1427.143 763.411 C 1426.669 763.705, 1335.205 763.985, 1223.890 764.034 C 1112.576 764.083, 1016.907 764.526, 1011.294 765.019 C 995.647 766.392, 989.119 770.865, 985.129 782.944 C 982.460 791.023, 982.463 791.137, 985.575 797.355 C 989.075 804.349, 991.175 806.377, 998.889 810.212 L 1005.500 813.498 1190.500 813.804 C 1371.927 814.104, 1383.339 813.954, 1404.500 810.992 C 1408.350 810.453, 1415.325 809.589, 1420 809.071 C 1424.675 808.553, 1431.650 807.665, 1435.500 807.097 C 1444.511 805.769, 1481.550 805.769, 1494.500 807.097 C 1524.816 810.205, 1540.341 812.537, 1554.404 816.095 C 1556.657 816.665, 1560.075 817.522, 1562 817.999 C 1563.925 818.477, 1567.300 819.379, 1569.500 820.005 C 1571.700 820.631, 1575.750 821.541, 1578.500 822.028 C 1586.037 823.362, 1598.965 826.992, 1603.739 829.115 C 1606.071 830.152, 1608.196 831, 1608.462 831 C 1608.728 831, 1611.545 832.179, 1614.723 833.620 C 1617.900 835.061, 1622.075 836.931, 1624 837.776 C 1625.925 838.621, 1632.450 841.638, 1638.500 844.480 C 1644.550 847.322, 1651.075 850.264, 1653 851.018 C 1658.516 853.177, 1664.519 856.683, 1678.500 865.913 C 1685.650 870.632, 1692.063 874.641, 1692.750 874.820 C 1693.438 875, 1694 875.564, 1694 876.073 C 1694 876.583, 1694.563 877.012, 1695.250 877.027 C 1699.248 877.115, 1734.022 905.082, 1747.500 919.050 C 1751.350 923.040, 1759.389 931.292, 1765.365 937.389 C 1771.340 943.485, 1777.612 950.504, 1779.302 952.987 C 1780.992 955.469, 1784.794 960.372, 1787.751 963.881 C 1792.681 969.734, 1812 997.999, 1812 999.360 C 1812 999.682, 1815.081 1004.796, 1818.846 1010.723 C 1824.906 1020.262, 1835 1039.740, 1835 1041.895 C 1835 1042.334, 1835.619 1043.999, 1836.376 1045.596 C 1837.133 1047.193, 1839.208 1051.875, 1840.987 1056 C 1842.765 1060.125, 1845.071 1065.230, 1846.110 1067.345 C 1847.150 1069.459, 1848 1071.599, 1848 1072.099 C 1848 1072.600, 1849.125 1075.342, 1850.500 1078.192 C 1851.875 1081.042, 1853 1084.100, 1853 1084.987 C 1853 1085.874, 1853.379 1087.027, 1853.843 1087.550 C 1854.307 1088.072, 1855.468 1091.200, 1856.423 1094.500 C 1857.378 1097.800, 1858.544 1101.625, 1859.013 1103 C 1859.482 1104.375, 1860.376 1109.550, 1860.999 1114.500 C 1861.622 1119.450, 1862.549 1125.075, 1863.058 1127 C 1864.929 1134.076, 1868.301 1152.658, 1868.682 1158 C 1868.898 1161.025, 1869.713 1168.900, 1870.494 1175.500 C 1872.230 1190.179, 1872.564 1233.213, 1871.034 1245 C 1870.427 1249.675, 1869.560 1257.775, 1869.106 1263 C 1868.387 1271.278, 1865.644 1286.907, 1862.962 1298 C 1862.497 1299.925, 1861.594 1305.100, 1860.955 1309.500 C 1859.793 1317.500, 1857.503 1327.733, 1856.031 1331.500 C 1855.601 1332.600, 1854.743 1334.759, 1854.125 1336.297 C 1853.506 1337.835, 1853 1339.736, 1853 1340.520 C 1853 1341.304, 1851.828 1344.545, 1850.397 1347.723 C 1846.534 1356.294, 1846.274 1356.899, 1843.179 1364.500 C 1832.603 1390.482, 1829.095 1398.279, 1825.295 1404.260 C 1822.933 1407.978, 1821 1411.236, 1821 1411.500 C 1821 1411.764, 1818.975 1415.139, 1816.500 1419 C 1814.025 1422.861, 1812 1426.311, 1812 1426.666 C 1812 1427.021, 1810.875 1428.786, 1809.500 1430.589 C 1808.125 1432.392, 1807 1434.126, 1807 1434.443 C 1807 1435.327, 1795.827 1452.076, 1793 1455.431 C 1791.625 1457.063, 1788.925 1460.059, 1787 1462.090 C 1782.347 1466.999, 1781.167 1468.477, 1776.480 1475.256 C 1772.435 1481.106, 1742.473 1511.279, 1727 1525.085 C 1717.175 1533.850, 1706.231 1542.312, 1701.669 1544.670 C 1699.926 1545.571, 1696.250 1547.948, 1693.500 1549.951 C 1688.647 1553.487, 1685.229 1555.610, 1676.125 1560.739 C 1673.720 1562.094, 1669.726 1564.749, 1667.250 1566.639 C 1662.883 1569.973, 1655.507 1574, 1653.768 1574 C 1653.297 1574, 1645.619 1577.538, 1636.706 1581.861 C 1627.793 1586.185, 1619.375 1590.065, 1618 1590.485 C 1616.625 1590.904, 1612.575 1592.565, 1609 1594.176 C 1597.662 1599.286, 1596.465 1599.674, 1582 1602.927 C 1571.338 1605.324, 1561.399 1607.775, 1557.500 1608.969 C 1554.909 1609.762, 1544.710 1611.883, 1528 1615.103 C 1513.456 1617.906, 1502.528 1618.500, 1465.500 1618.500 C 1437.547 1618.500, 1424.234 1618.120, 1418.500 1617.160 C 1414.100 1616.423, 1407.800 1615.448, 1404.500 1614.993 C 1397.299 1614.001, 1389.301 1612.234, 1365.627 1606.402 C 1355.797 1603.981, 1346.919 1602, 1345.898 1602 C 1343.393 1602, 1329.721 1597.413, 1323.312 1594.421 C 1320.458 1593.090, 1317.640 1592, 1317.048 1592 C 1316.457 1592, 1315.191 1591.574, 1314.236 1591.054 C 1309.295 1588.361, 1278.854 1574, 1278.086 1574 C 1277.594 1574, 1274.336 1572.364, 1270.846 1570.364 C 1267.356 1568.364, 1262.810 1565.804, 1260.745 1564.676 C 1258.680 1563.547, 1253.827 1560.244, 1249.962 1557.337 C 1243.175 1552.231, 1236.015 1547.821, 1223.586 1541.090 C 1218.646 1538.415, 1216.010 1537.737, 1207.586 1536.977 C 1193.567 1535.712, 1039.337 1535.774, 1030.522 1537.048 C 1026.684 1537.603, 1023.106 1538.494, 1022.572 1539.028 C 1022.037 1539.563, 1020.871 1540, 1019.980 1540 C 1017.057 1540, 1010.430 1546.621, 1009.181 1550.789 C 1007.733 1555.622, 1007.672 1562.278, 1009.030 1567.168 C 1010.194 1571.360, 1015.712 1576.692, 1019.768 1577.546 C 1021.271 1577.862, 1023.234 1578.514, 1024.132 1578.995 C 1028.905 1581.552, 1041.281 1581.920, 1120.702 1581.861 L 1203.903 1581.799 1209.530 1584.648 C 1212.624 1586.215, 1215.909 1588.181, 1216.828 1589.018 C 1223.417 1595.011, 1232.569 1601.006, 1244.090 1606.876 C 1251.465 1610.634, 1264.515 1617.308, 1273.089 1621.706 C 1288.123 1629.417, 1297.499 1633.366, 1307 1635.987 C 1311.601 1637.256, 1313.245 1637.827, 1318.500 1639.981 C 1326.505 1643.262, 1350.860 1650.893, 1364.500 1654.395 C 1373.640 1656.741, 1386.791 1659.406, 1393 1660.170 C 1434.782 1665.314, 1527.974 1663.977, 1550.283 1657.913 C 1552.602 1657.283, 1557.650 1656.169, 1561.500 1655.439 C 1565.350 1654.708, 1570.075 1653.678, 1572 1653.149 C 1579.605 1651.058, 1596.611 1645.856, 1598.500 1645.042 C 1599.600 1644.568, 1604.325 1642.931, 1609 1641.405 C 1613.675 1639.879, 1617.928 1638.264, 1618.450 1637.815 C 1618.973 1637.367, 1620.216 1637, 1621.214 1637 C 1622.211 1637, 1623.809 1636.604, 1624.764 1636.121 C 1625.719 1635.637, 1628.975 1634.474, 1632 1633.536 C 1635.025 1632.598, 1638.400 1631.464, 1639.500 1631.017 C 1649.378 1627.001, 1660.938 1621.477, 1667.500 1617.637 C 1670.250 1616.027, 1677.538 1612.105, 1683.695 1608.921 C 1689.852 1605.737, 1697.398 1601.527, 1700.464 1599.566 C 1703.530 1597.605, 1706.257 1596, 1706.524 1596 C 1707.313 1596, 1720.187 1586.908, 1724.214 1583.507 C 1726.256 1581.782, 1732.104 1577.925, 1737.209 1574.935 C 1743.368 1571.329, 1749.689 1566.424, 1755.995 1560.356 C 1761.223 1555.327, 1768.425 1548.997, 1772 1546.289 C 1775.575 1543.582, 1780.075 1539.171, 1782 1536.489 C 1783.925 1533.807, 1787.861 1529.073, 1790.747 1525.969 C 1793.632 1522.866, 1795.759 1520.092, 1795.472 1519.806 C 1795.186 1519.519, 1795.750 1518.658, 1796.726 1517.893 C 1798.375 1516.598, 1798.395 1516.641, 1797.017 1518.500 C 1795.553 1520.475, 1795.562 1520.477, 1797.744 1518.616 C 1798.959 1517.580, 1799.705 1516.332, 1799.402 1515.842 C 1799.099 1515.351, 1799.447 1515.074, 1800.176 1515.225 C 1800.904 1515.376, 1801.393 1514.954, 1801.262 1514.286 C 1801.131 1513.618, 1801.581 1513.254, 1802.262 1513.477 C 1802.943 1513.699, 1805.075 1511.856, 1807 1509.380 C 1808.925 1506.904, 1813.875 1501.185, 1818 1496.672 C 1822.125 1492.158, 1828.633 1483.522, 1832.463 1477.482 C 1836.292 1471.442, 1841.805 1463.261, 1844.713 1459.303 C 1847.621 1455.345, 1850 1451.802, 1850 1451.430 C 1850 1451.058, 1851.941 1447.997, 1854.314 1444.627 C 1856.687 1441.257, 1859.353 1436.925, 1860.238 1435 C 1864.459 1425.819, 1872.215 1409.984, 1874.716 1405.442 C 1880.306 1395.285, 1891 1370.851, 1891 1368.232 C 1891 1366.487, 1891.325 1365.370, 1896.311 1350 C 1898.184 1344.225, 1900.216 1337.700, 1900.826 1335.500 C 1901.437 1333.300, 1903.109 1327.450, 1904.543 1322.500 C 1905.977 1317.550, 1907.618 1311.700, 1908.191 1309.500 C 1908.763 1307.300, 1909.595 1304.375, 1910.039 1303 C 1910.484 1301.625, 1911.349 1297.125, 1911.962 1293 C 1912.575 1288.875, 1913.527 1283.250, 1914.077 1280.500 C 1914.626 1277.750, 1915.488 1271.225, 1915.991 1266 C 1916.495 1260.775, 1917.365 1252.225, 1917.926 1247 C 1919.216 1234.983, 1919.227 1186.938, 1917.943 1177 C 1917.410 1172.875, 1916.537 1165.450, 1916.004 1160.500 C 1914.378 1145.388, 1911.502 1128.853, 1908.614 1118 C 1904.352 1101.987, 1902.904 1096.755, 1901.513 1092.347 C 1900.672 1089.681, 1899.508 1085.925, 1898.926 1084 C 1898.344 1082.075, 1897.484 1079.600, 1897.015 1078.500 C 1896.546 1077.400, 1894.971 1072.225, 1893.516 1067 C 1889.647 1053.107, 1888.960 1050.968, 1886.771 1046 C 1885.681 1043.525, 1884.095 1039.925, 1883.248 1038 C 1882.400 1036.075, 1876.507 1023.925, 1870.152 1011 C 1858.324 986.945, 1852.464 976.915, 1842.260 963.266 C 1839.067 958.995, 1835.363 953.481, 1834.029 951.013 C 1829.967 943.492, 1824.384 936.080, 1816.508 927.752 C 1812.379 923.384, 1809 919.284, 1809 918.640 C 1809 917.995, 1804.423 913.018, 1798.828 907.579 C 1793.233 902.140, 1786.388 894.948, 1783.615 891.595 C 1777.431 884.118, 1773.282 880.288, 1765.500 874.876 C 1762.200 872.581, 1757.839 868.595, 1755.808 866.019 C 1751.519 860.575, 1743.817 854.500, 1736 850.394 C 1732.975 848.806, 1727.125 844.839, 1723 841.580 C 1711.425 832.435, 1694.938 822.090, 1679 813.974 C 1648.054 798.214, 1642.995 795.921, 1627.500 790.629 C 1609.061 784.332, 1602.311 781.990, 1599.500 780.913 C 1597.597 780.184, 1580.801 775.069, 1569 771.624 C 1555.818 767.775, 1544.708 766.131, 1517 763.927 C 1509.575 763.337, 1499 762.484, 1493.500 762.033 C 1480.717 760.983, 1442.413 761.005, 1434.253 762.066 M 810.934 763.369 C 810.695 763.591, 794.750 764.057, 775.500 764.404 C 729.796 765.228, 727.030 765.472, 722.013 769.105 C 715.866 773.558, 713.623 778.838, 713.556 789.014 C 713.504 796.959, 713.717 797.868, 716.750 802.602 C 719.216 806.452, 721.388 808.378, 725.750 810.588 L 731.500 813.500 806 813.500 L 880.500 813.500 886 810.904 C 892.111 808.020, 898 802.582, 898 799.825 C 898 798.837, 898.541 796.004, 899.203 793.530 C 900.977 786.900, 898.912 777.614, 894.675 773.168 C 889.112 767.330, 885.018 766.005, 869.500 765.016 C 852.851 763.956, 811.552 762.794, 810.934 763.369 M 1913.997 765.282 C 1913.170 765.952, 1910.039 769.556, 1907.039 773.290 C 1896.832 785.998, 1885.151 791.218, 1871.917 788.986 C 1867.718 788.278, 1863.929 786.920, 1861.843 785.377 L 1858.500 782.903 1856.250 785.507 C 1853.374 788.837, 1853.419 789.417, 1856.750 791.925 C 1858.263 793.064, 1861.634 796.134, 1864.241 798.748 C 1866.849 801.362, 1868.987 803.195, 1868.991 802.821 C 1868.996 802.448, 1868.423 801.548, 1867.717 800.821 C 1867.011 800.095, 1865.401 798.031, 1864.138 796.235 C 1862.875 794.439, 1860.528 792.290, 1858.921 791.459 C 1853.227 788.515, 1856.412 784.553, 1862.258 787.307 C 1864.041 788.147, 1868.205 789.531, 1871.511 790.383 C 1877.130 791.830, 1878.030 791.804, 1885.299 789.988 C 1896.436 787.205, 1903.372 781.900, 1912.417 769.250 C 1916.305 763.811, 1916.541 763.220, 1913.997 765.282 M 1870 803.206 C 1870.275 803.558, 1875.274 808.943, 1881.108 815.173 C 1892.967 827.835, 1898.842 834.341, 1907.364 844.250 C 1910.557 847.962, 1913.757 851, 1914.476 851 C 1915.195 851, 1916.481 852.744, 1917.334 854.876 C 1918.674 858.226, 1924.914 866.431, 1939 883.366 C 1940.925 885.680, 1943.298 888.682, 1944.273 890.037 L 1946.045 892.500 1944.594 889.437 C 1943.795 887.753, 1941.184 884.153, 1938.791 881.437 C 1932.910 874.764, 1923.936 862.705, 1919.870 856.013 C 1918.037 852.995, 1912.303 846.245, 1907.129 841.013 C 1901.955 835.781, 1896.053 829.250, 1894.013 826.500 C 1891.974 823.750, 1885.624 817.240, 1879.903 812.033 C 1874.181 806.826, 1869.725 802.854, 1870 803.206 M 732.500 893.947 C 626.906 894.479, 616.051 894.684, 611.500 896.232 C 599.124 900.440, 594 906.924, 594 918.378 C 594 926.693, 595.279 929.951, 599.781 933.106 C 605.300 936.974, 616.247 940.337, 620.246 939.393 L 623.500 938.625 620.500 937.919 C 618.850 937.531, 737.200 937.172, 883.500 937.121 C 1029.800 937.071, 1150.724 936.685, 1152.220 936.265 C 1156.387 935.093, 1161.834 929.404, 1162.576 925.447 C 1162.933 923.544, 1163.049 918.880, 1162.835 915.081 C 1162.455 908.367, 1162.321 908.062, 1157.972 904.083 C 1151.566 898.221, 1145.937 895.903, 1135.501 894.830 C 1124.329 893.681, 888.021 893.163, 732.500 893.947 M 399 894.925 C 388.314 895.725, 379.428 898.089, 375.505 901.175 C 370.489 905.120, 367.772 910.757, 367.675 917.417 C 367.599 922.610, 368.051 924.241, 370.766 928.566 C 373.847 933.476, 375.981 935.166, 380.809 936.523 C 384.551 937.575, 470.212 937.268, 473 936.193 C 476.825 934.719, 478.627 932.127, 481.038 924.638 C 483.010 918.509, 483.107 917.333, 481.949 913.638 C 481.236 911.362, 480.280 909.072, 479.826 908.550 C 479.372 908.027, 479 906.825, 479 905.877 C 479 902.983, 473.606 898.555, 467.904 896.770 C 463.568 895.413, 457.163 894.993, 435.500 894.645 C 420.650 894.407, 404.225 894.533, 399 894.925 M 1974.021 939.583 C 1974.033 940.638, 1976.687 946.225, 1979.918 952 C 1989.745 969.561, 2002 994.811, 2002 997.496 C 2002 998.889, 2003.623 1003.960, 2005.607 1008.764 C 2010.636 1020.947, 2016.298 1035.661, 2018.010 1041 C 2019.916 1046.943, 2022.910 1052.921, 2022.960 1050.883 C 2022.982 1049.994, 2022.152 1047.069, 2021.114 1044.383 C 2020.077 1041.698, 2018.008 1036.125, 2016.515 1032 C 2015.022 1027.875, 2012.946 1022.592, 2011.901 1020.261 C 2010.855 1017.929, 2010 1015.747, 2010 1015.412 C 2010 1015.077, 2009.388 1013.384, 2008.641 1011.651 C 2005.619 1004.647, 2005 1002.819, 2005 1000.895 C 2005 999.790, 2002.477 993.398, 1999.393 986.692 C 1996.309 979.987, 1993.062 972.925, 1992.178 971 C 1991.294 969.075, 1989.031 964.800, 1987.150 961.500 C 1985.268 958.200, 1981.705 951.675, 1979.231 947 C 1973.971 937.062, 1973.994 937.094, 1974.021 939.583 M 1675.054 955.588 C 1672.058 956.948, 1666.861 960.634, 1663.505 963.780 C 1660.148 966.926, 1655.268 971.471, 1652.660 973.879 C 1650.052 976.288, 1645.850 980.947, 1643.321 984.232 C 1640.793 987.518, 1633.499 995.447, 1627.112 1001.853 C 1604.130 1024.903, 1586.296 1043.565, 1583.968 1047 C 1582.663 1048.925, 1579.372 1052.525, 1576.654 1055 C 1568.727 1062.219, 1556 1075.168, 1556 1076.014 C 1556 1076.888, 1546.650 1086.442, 1536.912 1095.518 C 1533.361 1098.828, 1529.126 1103.328, 1527.501 1105.518 C 1525.876 1107.708, 1519.811 1114.141, 1514.023 1119.813 L 1503.500 1130.127 1499 1129.467 C 1471.381 1125.420, 1450.668 1125.910, 1438.170 1130.904 C 1430.352 1134.028, 1422.720 1139.598, 1411.814 1150.138 C 1399.897 1161.656, 1395.529 1169.472, 1390.479 1188.322 C 1387.350 1200.001, 1387.450 1207.718, 1390.911 1221.500 C 1393.499 1231.809, 1394.098 1233.296, 1398.952 1241.489 C 1403.188 1248.639, 1404.211 1249.916, 1418.148 1265.450 C 1418.670 1266.032, 1419 1265.919, 1419 1265.157 C 1419 1264.474, 1417.033 1261.796, 1414.628 1259.207 C 1407.149 1251.156, 1397.201 1236.117, 1395.055 1229.619 C 1389.779 1213.648, 1389.213 1200.804, 1393.132 1186 C 1396.722 1172.435, 1400.902 1165.356, 1413.137 1152.118 C 1423.136 1141.299, 1425.202 1139.582, 1433.176 1135.463 C 1440.632 1131.613, 1443.553 1130.687, 1451.283 1129.726 C 1467.882 1127.663, 1495.359 1129.205, 1498.887 1132.397 C 1499.861 1133.279, 1501.098 1134, 1501.636 1134 C 1504.330 1134, 1526.198 1112.361, 1528.654 1107.266 C 1529.511 1105.487, 1531.688 1103.120, 1533.491 1102.006 C 1537.146 1099.747, 1554.788 1081.109, 1556.771 1077.412 C 1557.470 1076.108, 1559.092 1074.470, 1560.375 1073.771 C 1561.658 1073.072, 1567.303 1067.550, 1572.920 1061.500 C 1578.538 1055.450, 1587.491 1045.992, 1592.817 1040.481 C 1598.142 1034.971, 1612.622 1019.671, 1624.993 1006.481 C 1637.364 993.292, 1653.114 976.833, 1659.993 969.906 C 1674.126 955.675, 1676.554 954.428, 1687.288 955.888 C 1693.688 956.759, 1693.732 955.971, 1687.384 954.169 C 1681.968 952.631, 1681.430 952.693, 1675.054 955.588 M 1699.945 989.985 C 1697.990 991.918, 1695.833 994.625, 1695.151 996 C 1693.607 999.115, 1677.830 1015.508, 1672.682 1019.347 C 1670.582 1020.913, 1668.555 1023.028, 1668.178 1024.047 C 1667.161 1026.797, 1650.396 1044.653, 1646.895 1046.717 C 1645.230 1047.698, 1642.316 1050.837, 1640.419 1053.693 C 1638.521 1056.549, 1631.593 1063.952, 1625.022 1070.144 C 1618.452 1076.336, 1612.573 1082.617, 1611.958 1084.102 C 1610.859 1086.754, 1597.373 1100.153, 1590.989 1104.934 C 1589.202 1106.272, 1586.256 1109.647, 1584.443 1112.434 C 1580.666 1118.237, 1573.048 1126.292, 1564.594 1133.419 C 1561.385 1136.124, 1557.281 1140.624, 1555.474 1143.419 C 1552.048 1148.715, 1546.484 1154.372, 1539.250 1159.913 C 1534.430 1163.604, 1534.259 1164.318, 1536.909 1169.655 C 1539.898 1175.677, 1542.636 1182.223, 1543.537 1185.500 C 1544.298 1188.273, 1544.391 1188.324, 1544.759 1186.182 C 1544.978 1184.908, 1544.243 1181.920, 1543.125 1179.543 C 1542.008 1177.166, 1540.798 1174.042, 1540.436 1172.601 C 1540.074 1171.160, 1539.378 1169.734, 1538.889 1169.432 C 1538.400 1169.129, 1538 1167.818, 1538 1166.517 C 1538 1164.843, 1540.083 1162.303, 1545.127 1157.826 C 1549.046 1154.347, 1553.944 1149.015, 1556.009 1145.977 C 1558.075 1142.940, 1563.298 1137.315, 1567.615 1133.477 C 1578.023 1124.225, 1580.283 1121.898, 1583.811 1116.800 C 1585.447 1114.435, 1592.684 1106.910, 1599.893 1100.079 C 1607.102 1093.247, 1613 1087.027, 1613 1086.257 C 1613 1084.932, 1619.859 1077.774, 1630.335 1068.167 C 1632.933 1065.784, 1636.936 1061.284, 1639.229 1058.167 C 1643.985 1051.704, 1643.065 1052.658, 1653.249 1043.628 C 1657.511 1039.849, 1662.967 1033.999, 1665.374 1030.628 C 1667.781 1027.258, 1672.169 1022.302, 1675.125 1019.615 C 1685.715 1009.992, 1695 1000.590, 1695 999.492 C 1695 998.877, 1696.390 997.052, 1698.089 995.437 C 1700.895 992.770, 1704.616 987.063, 1703.824 986.642 C 1703.646 986.547, 1701.900 988.052, 1699.945 989.985 M 2023.085 1054 C 2023.058 1054.825, 2024.428 1060, 2026.130 1065.500 C 2027.832 1071, 2029.588 1079.325, 2030.031 1084 C 2030.474 1088.675, 2031.583 1095.200, 2032.496 1098.500 C 2034.414 1105.438, 2039.805 1132.690, 2041.002 1141.500 C 2041.450 1144.800, 2042.530 1152.675, 2043.401 1159 C 2044.271 1165.325, 2045.032 1173.650, 2045.091 1177.500 C 2045.150 1181.350, 2045.574 1186.975, 2046.033 1190 C 2046.575 1193.568, 2046.704 1189.352, 2046.401 1178 C 2046.144 1168.375, 2045.511 1158.475, 2044.994 1156 C 2044.477 1153.525, 2043.160 1145.425, 2042.067 1138 C 2039.506 1120.605, 2037.238 1108.646, 2035.431 1103 C 2034.638 1100.525, 2033.992 1097.046, 2033.995 1095.269 C 2034.001 1091.236, 2032.019 1078.183, 2030.993 1075.500 C 2030.572 1074.400, 2029.678 1071.475, 2029.007 1069 C 2026.820 1060.945, 2023.163 1051.680, 2023.085 1054 M 801 1065.956 L 768.500 1066.500 762 1069.614 C 752.290 1074.267, 749.850 1077.345, 749.259 1085.690 C 748.562 1095.548, 750.047 1099.999, 755.241 1103.606 C 759.937 1106.868, 762.790 1108.291, 767.899 1109.918 C 772.808 1111.481, 1068.812 1111.440, 1072.703 1109.875 C 1082.371 1105.988, 1083.443 1105.091, 1086.571 1098.251 C 1089.573 1091.689, 1089.640 1086.850, 1086.825 1079.883 C 1084.087 1073.106, 1083.436 1072.270, 1079.612 1070.622 C 1077.901 1069.885, 1075.150 1068.683, 1073.500 1067.951 C 1071.319 1066.985, 1061.360 1066.426, 1037 1065.905 C 999.206 1065.097, 850.384 1065.128, 801 1065.956 M 521 1066.999 C 508.815 1068.726, 501.274 1074.727, 499.104 1084.427 C 496.383 1096.583, 502.549 1104.939, 517.899 1109.901 C 520.197 1110.644, 538.752 1111, 575.160 1111 C 627.424 1111, 629.152 1110.939, 633.395 1108.944 C 639.057 1106.283, 642.007 1102.879, 644.960 1095.602 L 647.353 1089.703 644.943 1082.602 C 642.460 1075.285, 640.247 1072.404, 635.336 1070.098 C 633.776 1069.366, 631.600 1068.257, 630.500 1067.633 C 628.147 1066.300, 529.949 1065.731, 521 1066.999 M 1459.945 1172.450 C 1453.012 1175.005, 1448.007 1178.061, 1446.335 1180.763 C 1445.402 1182.268, 1443.414 1184.850, 1441.916 1186.500 C 1438.768 1189.967, 1436.104 1197.239, 1435.545 1203.896 C 1435.095 1209.241, 1437.337 1215.310, 1443.066 1224.259 C 1449.349 1234.073, 1456.315 1237.930, 1468.162 1238.155 C 1474.320 1238.272, 1476.463 1237.839, 1481.479 1235.467 C 1487.968 1232.397, 1495.746 1225.310, 1498.563 1219.902 C 1499.981 1217.180, 1500.330 1214.064, 1500.311 1204.303 C 1500.285 1191.238, 1499.393 1187.589, 1495.538 1184.768 L 1493.171 1183.036 1494.733 1186.166 C 1498.235 1193.186, 1498.117 1214.736, 1494.536 1222.284 C 1492.461 1226.656, 1488.116 1230.573, 1482.500 1233.133 C 1479.437 1234.529, 1475.989 1234.961, 1467.780 1234.978 C 1451.985 1235.010, 1449.367 1233.234, 1440.551 1216.500 C 1435.263 1206.461, 1436.248 1198.873, 1444.516 1185.974 C 1448.540 1179.697, 1449.597 1178.749, 1455.620 1176.018 C 1464.292 1172.086, 1471.125 1171.972, 1480.077 1175.609 C 1483.609 1177.044, 1487.849 1179.164, 1489.499 1180.320 C 1491.673 1181.843, 1492.125 1181.954, 1491.138 1180.723 C 1487.481 1176.164, 1475.018 1170.961, 1468.014 1171.070 C 1465.531 1171.109, 1461.900 1171.730, 1459.945 1172.450 M 2047.206 1219 C 2046.985 1246.772, 2045.027 1275.613, 2041.979 1296 C 2038.925 1316.419, 2034.994 1337.383, 2032.320 1347.500 C 2031.448 1350.800, 2030.381 1357.100, 2029.949 1361.500 C 2029.145 1369.692, 2027.473 1377.609, 2026.156 1379.461 C 2025.231 1380.762, 2023.516 1385.866, 2021.607 1393 C 2019.674 1400.229, 2007.791 1431.505, 2004.545 1437.912 C 2003.145 1440.674, 2002 1444.442, 2002 1446.285 C 2002 1448.525, 1999.004 1455.547, 1992.968 1467.453 C 1988 1477.252, 1984.123 1485.456, 1984.351 1485.684 C 1984.579 1485.912, 1986.637 1482.589, 1988.925 1478.299 C 1991.213 1474.010, 1993.503 1469.825, 1994.015 1469 C 1994.915 1467.547, 1997.297 1462.598, 1999.068 1458.500 C 1999.543 1457.400, 2001.073 1453.857, 2002.466 1450.626 C 2003.860 1447.395, 2005 1443.934, 2005 1442.935 C 2005 1441.935, 2005.450 1440.840, 2006 1440.500 C 2006.550 1440.160, 2007 1439.002, 2007 1437.927 C 2007 1436.852, 2007.418 1435.191, 2007.929 1434.236 C 2008.439 1433.281, 2010.495 1428, 2012.495 1422.500 C 2014.496 1417, 2017.194 1409.800, 2018.491 1406.500 C 2019.787 1403.200, 2021.330 1398.925, 2021.920 1397 C 2022.509 1395.075, 2024.507 1388.775, 2026.359 1383 C 2031.584 1366.708, 2032.074 1364.654, 2033.988 1351 C 2034.412 1347.975, 2035.512 1342.350, 2036.432 1338.500 C 2037.353 1334.650, 2038.509 1329.025, 2039.001 1326 C 2040.720 1315.449, 2042.082 1308.677, 2042.678 1307.713 C 2043.259 1306.772, 2043.829 1300.955, 2046.031 1273.500 C 2047.699 1252.709, 2048.545 1224.597, 2047.943 1210 C 2047.442 1197.858, 2047.368 1198.764, 2047.206 1219 M 496.500 1238 C 377.591 1238.577, 387.692 1237.666, 384.014 1248.148 C 380.411 1258.422, 380.315 1262.497, 383.533 1268.648 C 387.073 1275.416, 389.478 1277.616, 395.900 1279.964 C 400.889 1281.787, 406.383 1281.887, 526.804 1282.343 C 646.833 1282.798, 752.349 1281.962, 760.139 1280.493 C 764.875 1279.600, 770.531 1274.875, 773.014 1269.735 C 776.081 1263.388, 775.969 1253.681, 772.763 1248 C 769.341 1241.936, 765.808 1240.086, 755.314 1238.863 C 744.836 1237.641, 641.406 1237.297, 496.500 1238 M 893.324 1239.027 C 889.378 1239.442, 885.164 1240.472, 883.959 1241.316 C 880.650 1243.634, 878.238 1248.226, 876.881 1254.795 C 875.035 1263.734, 876.752 1268.727, 883.843 1275.048 C 886.899 1277.771, 890.183 1280, 891.141 1280 C 892.098 1280, 893.160 1280.450, 893.500 1281 C 894.451 1282.539, 1067.557 1282.354, 1073.736 1280.807 C 1079.559 1279.350, 1084.072 1276.218, 1085.877 1272.382 C 1086.623 1270.797, 1087.680 1268.640, 1088.226 1267.588 C 1088.772 1266.537, 1089.449 1263.139, 1089.730 1260.038 C 1090.151 1255.396, 1089.785 1253.401, 1087.655 1248.746 C 1083.556 1239.785, 1083.057 1239.617, 1058.051 1238.838 C 1029.057 1237.934, 902.327 1238.079, 893.324 1239.027 M 1516.139 1266.086 C 1514.841 1267.139, 1513.080 1268, 1512.227 1268 C 1511.374 1268, 1507.261 1269.981, 1503.088 1272.401 C 1492.879 1278.323, 1481.712 1281, 1467.222 1281 C 1461.214 1281, 1454.769 1280.506, 1452.899 1279.903 C 1444.163 1277.082, 1435.184 1273.472, 1432 1271.501 C 1428.461 1269.310, 1421.935 1266.732, 1421.367 1267.300 C 1420.671 1267.995, 1444.149 1278.967, 1449 1280.212 C 1461.311 1283.374, 1468.585 1284.145, 1475.500 1283.024 C 1479.350 1282.400, 1483.882 1281.464, 1485.571 1280.944 C 1487.260 1280.425, 1489.436 1280, 1490.407 1280 C 1491.378 1280, 1497.421 1277.264, 1503.836 1273.920 C 1515.951 1267.606, 1519.653 1265.318, 1518.927 1264.596 C 1518.692 1264.363, 1517.438 1265.033, 1516.139 1266.086 M 571.500 1406.092 C 547.550 1406.839, 541.006 1408.530, 535.304 1415.447 C 527.553 1424.851, 527.866 1438.508, 536.021 1446.750 C 537.790 1448.537, 539.746 1450.003, 540.369 1450.006 C 540.991 1450.010, 542.850 1450.795, 544.500 1451.751 C 547.286 1453.367, 553.621 1453.491, 633.500 1453.495 C 716.132 1453.500, 719.657 1453.425, 723.500 1451.588 C 733.365 1446.871, 738.239 1440.932, 739.381 1432.240 C 740.373 1424.686, 738.784 1419.977, 733.645 1415.241 C 723.647 1406.024, 722.078 1405.843, 650.655 1405.657 C 617.570 1405.571, 581.950 1405.767, 571.500 1406.092 M 866.500 1405.970 C 846.254 1406.951, 837.812 1408.907, 834.003 1413.497 C 831.840 1416.102, 829.081 1430.480, 830.021 1434.245 C 832.645 1444.753, 834.567 1447.616, 841.500 1451.347 L 845.500 1453.500 996 1453.500 C 1143.519 1453.500, 1146.638 1453.460, 1153.444 1451.500 C 1161.836 1449.083, 1165.882 1445.454, 1167.992 1438.452 C 1169.700 1432.784, 1169.770 1423.370, 1168.117 1421.717 C 1167.503 1421.103, 1166.985 1419.902, 1166.967 1419.050 C 1166.915 1416.649, 1163.683 1413.324, 1159.059 1410.914 C 1149.141 1405.744, 1152.128 1405.853, 1012 1405.537 C 940.225 1405.375, 874.750 1405.570, 866.500 1405.970 M 1968.787 1514.876 C 1966.744 1517.969, 1962.354 1524.487, 1959.031 1529.359 C 1955.707 1534.232, 1951.339 1540.982, 1949.323 1544.359 C 1940.775 1558.680, 1930.322 1573.157, 1925.937 1576.747 C 1922.601 1579.478, 1916.998 1587.745, 1917.007 1589.921 C 1917.011 1590.971, 1917.597 1590.627, 1918.757 1588.895 C 1919.715 1587.462, 1922.666 1583.793, 1925.313 1580.741 C 1927.960 1577.689, 1931.442 1573.237, 1933.050 1570.846 C 1934.658 1568.456, 1937.544 1564.475, 1939.463 1562 C 1941.381 1559.525, 1942.962 1556.938, 1942.976 1556.250 C 1942.989 1555.563, 1943.378 1555, 1943.839 1555 C 1944.301 1555, 1945.191 1553.987, 1945.817 1552.750 C 1947.809 1548.812, 1951.262 1543.445, 1960.640 1529.711 C 1969.484 1516.759, 1973.496 1510.116, 1972.824 1509.534 C 1972.646 1509.379, 1970.829 1511.783, 1968.787 1514.876 M 544 1536.048 C 518.425 1536.349, 496.600 1536.952, 495.500 1537.388 C 487.514 1540.555, 482.448 1544.303, 478.547 1549.932 C 474.656 1555.547, 475.189 1562.265, 480.140 1570.005 C 483.359 1575.036, 484.224 1575.697, 490.347 1577.798 C 494.026 1579.061, 500.966 1580.541, 505.768 1581.088 C 517.632 1582.439, 888.669 1581.413, 895.250 1580.012 C 897.862 1579.455, 901.986 1578.627, 904.414 1578.172 C 909.559 1577.206, 913.322 1574.964, 915.578 1571.521 C 916.861 1569.563, 917.115 1566.940, 916.842 1558.466 L 916.500 1547.862 911.903 1543.520 C 909.374 1541.132, 905.549 1538.636, 903.403 1537.974 C 901.149 1537.278, 891.048 1536.597, 879.500 1536.363 C 846.636 1535.694, 594.132 1535.457, 544 1536.048 M 329.238 1538.648 C 322.634 1541.332, 317.808 1545.751, 315.033 1551.653 C 312.633 1556.760, 312.437 1560.874, 314.468 1563.559 C 315.276 1564.626, 315.951 1566.133, 315.968 1566.906 C 316.023 1569.320, 320.899 1574.863, 324.274 1576.348 C 335.370 1581.232, 337.892 1581.505, 371 1581.407 C 392.117 1581.345, 404.148 1580.912, 407.500 1580.093 C 410.250 1579.420, 413.688 1578.631, 415.140 1578.338 C 419.003 1577.559, 424.748 1572.426, 427.020 1567.723 C 428.211 1565.258, 428.990 1561.607, 428.975 1558.562 C 428.955 1554.395, 428.345 1552.675, 425.525 1548.833 C 421.190 1542.925, 414.606 1538.371, 408.363 1536.961 C 405.206 1536.248, 391.445 1535.956, 369.138 1536.130 C 336.130 1536.386, 334.559 1536.485, 329.238 1538.648 M 1903.884 1603.891 C 1897.496 1610.305, 1891.353 1617.348, 1890.234 1619.542 C 1889.114 1621.736, 1885.855 1625.549, 1882.991 1628.016 C 1880.127 1630.482, 1871.600 1638.688, 1864.042 1646.250 C 1856.485 1653.813, 1849.764 1660, 1849.108 1660 C 1847.137 1660, 1837.365 1667.848, 1833.572 1672.477 C 1829.498 1677.449, 1815.910 1688, 1813.580 1688 C 1812.718 1688, 1810.041 1689.942, 1807.634 1692.316 C 1805.226 1694.690, 1798.361 1699.944, 1792.378 1703.991 C 1786.395 1708.039, 1780.481 1712.342, 1779.236 1713.553 C 1777.990 1714.765, 1775.643 1716.021, 1774.019 1716.346 C 1770.968 1716.956, 1756.703 1725.389, 1751.935 1729.401 C 1749.040 1731.837, 1727.160 1743.248, 1723 1744.491 C 1721.625 1744.902, 1712.400 1749.183, 1702.500 1754.004 C 1692.600 1758.825, 1680.675 1764.244, 1676 1766.046 C 1671.325 1767.849, 1667.072 1769.701, 1666.550 1770.162 C 1665.276 1771.286, 1667.526 1771.255, 1669.764 1770.117 C 1671.517 1769.225, 1672.833 1768.681, 1681 1765.471 C 1683.475 1764.498, 1691.575 1760.798, 1699 1757.249 C 1712.485 1750.802, 1718.522 1747.987, 1727 1744.193 C 1738.261 1739.153, 1745.025 1735.769, 1745.557 1734.908 C 1745.875 1734.393, 1747.793 1733.073, 1749.818 1731.975 C 1754.463 1729.457, 1757.358 1727.666, 1758 1726.914 C 1759.027 1725.710, 1770.077 1719, 1771.033 1719 C 1771.580 1719, 1772.809 1718.616, 1773.764 1718.147 C 1774.719 1717.678, 1777.098 1716.530, 1779.052 1715.596 C 1781.006 1714.662, 1784.156 1712.540, 1786.052 1710.879 C 1791.893 1705.765, 1795.301 1703.306, 1800.500 1700.453 C 1803.250 1698.944, 1807.048 1696.134, 1808.941 1694.208 C 1810.833 1692.282, 1816.233 1688.209, 1820.941 1685.156 C 1825.648 1682.103, 1832.200 1676.833, 1835.500 1673.445 C 1838.800 1670.057, 1843.975 1665.478, 1847 1663.270 C 1850.025 1661.062, 1858.125 1653.907, 1865 1647.370 C 1871.875 1640.833, 1879.646 1633.764, 1882.268 1631.660 C 1884.891 1629.557, 1888.915 1625.060, 1891.210 1621.668 C 1893.506 1618.276, 1898.571 1612.272, 1902.467 1608.327 C 1908.166 1602.555, 1917.173 1591.614, 1915.812 1592.115 C 1915.640 1592.178, 1910.273 1597.478, 1903.884 1603.891" stroke="none" fill="#249fad" fill-rule="evenodd"/></svg>