<svg width="121" height="121" viewBox="0 0 121 121" fill="none" xmlns="http://www.w3.org/2000/svg">
<rect width="121" height="121" fill="#F5F5F5"/>
<g clip-path="url(#clip0_0_1)">
<rect width="393" height="974" transform="translate(-247 -345)" fill="white"/>
<rect width="121" height="121" rx="16" fill="#24979D"/>
<path d="M41.9513 56.9468C41.697 56.9362 41.4674 56.9256 41.2413 56.9079L41.3155 55.9154C41.531 55.9295 41.75 55.9437 41.9725 55.9507C42.1809 55.9507 42.4105 55.9437 42.6365 55.9331L42.6824 56.9291C42.4387 56.9433 42.195 56.9468 41.9513 56.9468ZM44.1023 56.7949L43.961 55.8094C44.399 55.7459 44.8405 55.6611 45.2714 55.5587L45.5081 56.5265C45.0454 56.636 44.5756 56.7278 44.1023 56.7949ZM39.832 56.7525C39.3587 56.6819 38.889 56.5936 38.4369 56.4876L38.6629 55.5163C39.0903 55.6152 39.5318 55.6999 39.9804 55.7671L39.832 56.7525ZM46.8785 56.1203L46.5536 55.1807C46.9739 55.0359 47.3907 54.8664 47.7898 54.6827L48.2031 55.5869C47.7757 55.7847 47.3271 55.9649 46.8785 56.1203ZM37.0629 56.1061C36.6108 55.9578 36.1587 55.7883 35.7278 55.601L36.1234 54.6862C36.5295 54.8593 36.9499 55.0182 37.3737 55.156L37.0629 56.1061ZM34.4421 54.9723C34.0218 54.7427 33.6121 54.4884 33.2235 54.22L33.7887 53.4005C34.1489 53.6513 34.5304 53.8844 34.9189 54.0999L34.4421 54.9723ZM49.4746 54.9299L48.9766 54.0681C49.3581 53.8456 49.736 53.6019 50.0998 53.344L50.6791 54.1529C50.2905 54.4319 49.8843 54.6933 49.4746 54.9299ZM32.0897 53.3475C31.7295 53.0367 31.3762 52.7082 31.0513 52.3621L31.7718 51.6768C32.0756 51.9983 32.4005 52.3056 32.7361 52.5917L32.0897 53.3475ZM51.7987 53.2734L51.1453 52.521C51.4808 52.2314 51.8058 51.9206 52.1095 51.5991L52.8301 52.2879C52.5051 52.6305 52.1555 52.9625 51.7987 53.2734ZM30.1153 51.2742C29.8257 50.8998 29.5502 50.5042 29.2959 50.098L30.14 49.5717C30.3731 49.9461 30.631 50.317 30.8994 50.6631L30.1153 51.2742ZM53.7661 51.2035L52.982 50.5889C53.2575 50.2393 53.5188 49.8719 53.7555 49.501L54.5926 50.0415C54.3418 50.4406 54.0628 50.8291 53.7661 51.2035ZM28.6 48.8511C28.3916 48.4273 28.1974 47.9893 28.0278 47.5407L28.9568 47.1839C29.1157 47.6007 29.2959 48.014 29.4901 48.4061L28.6 48.8511ZM55.3131 48.8052L54.4266 48.3496C54.6314 47.9575 54.8151 47.5478 54.9811 47.1345L55.9065 47.5054C55.7299 47.9434 55.5286 48.3813 55.3131 48.8052ZM27.5828 46.1843C27.4556 45.7287 27.3497 45.2589 27.2614 44.7927L28.2398 44.6125C28.321 45.0505 28.4199 45.4885 28.54 45.9159L27.5828 46.1843ZM56.3728 46.1526L55.4156 45.8735C55.5392 45.4497 55.6452 45.0117 55.7299 44.5772L56.7083 44.7644C56.62 45.2307 56.507 45.6969 56.3728 46.1526ZM27.0671 43.3798C27.0247 42.91 27 42.4297 27 41.9528H27.996C27.996 42.3979 28.0172 42.8465 28.0596 43.288L27.0671 43.3798ZM56.9096 43.348L55.9171 43.2562C55.9595 42.8147 55.9807 42.3661 55.9807 41.9246V41.8645L56.9767 41.8575V41.9246C56.9767 42.3979 56.9556 42.8783 56.9096 43.348ZM28.0561 40.6142L27.0636 40.5258C27.106 40.0525 27.166 39.5757 27.2508 39.113L28.2327 39.2896C28.1515 39.724 28.0949 40.1691 28.0561 40.6142ZM55.9136 40.5258C55.8712 40.0843 55.8041 39.6393 55.7193 39.2048L56.6977 39.0141C56.7895 39.4803 56.8602 39.9536 56.9061 40.4269L55.9136 40.5258ZM28.5259 37.9827L27.5651 37.7178C27.6923 37.2586 27.8406 36.803 28.0066 36.3579L28.9391 36.7076C28.7802 37.1279 28.6424 37.5553 28.5259 37.9827ZM55.4014 37.9121C55.2743 37.4882 55.1259 37.0643 54.9599 36.6546L55.8818 36.2802C56.0584 36.7217 56.2209 37.1738 56.3551 37.6295L55.4014 37.9121ZM29.4654 35.489L28.5718 35.051C28.7837 34.6236 29.0133 34.1998 29.2641 33.8006L30.1118 34.3234C29.8786 34.6978 29.6632 35.0899 29.4654 35.489ZM54.3983 35.4431C54.1935 35.051 53.9674 34.6625 53.7272 34.2916L54.5608 33.7477C54.8186 34.1468 55.0624 34.5601 55.2814 34.9804L54.3983 35.4431ZM30.8676 33.2249L30.0764 32.6174C30.3661 32.2394 30.6804 31.8721 31.0054 31.5259L31.7295 32.2076C31.4257 32.5326 31.1361 32.8752 30.8676 33.2249ZM52.9466 33.2037C52.6711 32.8576 52.3745 32.5185 52.0672 32.197L52.7842 31.5083C53.1127 31.8509 53.4305 32.2147 53.7237 32.5856L52.9466 33.2037ZM32.6902 31.2928L32.0403 30.5369C32.4005 30.2261 32.782 29.9294 33.1705 29.6574L33.7392 30.4734C33.3789 30.7312 33.0257 31.0032 32.6902 31.2928ZM51.0994 31.2822C50.7638 30.9926 50.4106 30.7171 50.0468 30.4592L50.6225 29.6468C51.0111 29.9223 51.389 30.2155 51.7493 30.5263L51.0994 31.2822ZM34.8695 29.7705L34.3856 28.9016C34.7988 28.672 35.2297 28.46 35.6677 28.2658L36.0668 29.1771C35.6571 29.3572 35.2545 29.5585 34.8695 29.7705ZM48.9236 29.7422C48.5386 29.5232 48.1395 29.3183 47.7368 29.1347L48.1466 28.2269C48.581 28.4212 49.0084 28.6437 49.4181 28.8768L48.9236 29.7422ZM37.3137 28.7038L37.0028 27.7571C37.4479 27.6088 37.9071 27.4781 38.3733 27.3686L38.6029 28.3364C38.1614 28.4424 37.7305 28.566 37.3137 28.7038ZM46.4935 28.6437C46.0768 28.4989 45.6458 28.3753 45.2114 28.2728L45.441 27.305C45.9037 27.4145 46.3664 27.5487 46.815 27.7042L46.4935 28.6437ZM39.9168 28.0856L39.7685 27.1002C40.2276 27.0295 40.7009 26.9765 41.1778 26.9377L41.2555 27.9302C40.7998 27.9655 40.3513 28.0185 39.9168 28.0856ZM43.901 28.0256C43.463 27.9655 43.0144 27.9231 42.5729 27.9055L42.6153 26.9094C43.0886 26.9306 43.569 26.973 44.0387 27.0401L43.901 28.0256Z" fill="white"/>
<path d="M63.6021 35.0228C79.1857 35.0228 91.8658 47.7032 91.8658 63.2871C91.8658 78.8709 79.1857 91.5513 63.6021 91.5513C48.0186 91.5513 35.3385 78.8709 35.3385 63.2871C35.3385 47.7032 48.0186 35.0228 63.6021 35.0228ZM63.6021 32.8894C46.8142 32.8894 33.2051 46.4988 33.2051 63.2871C33.2051 80.0753 46.8142 93.6847 63.6021 93.6847C80.3901 93.6847 93.9992 80.0753 93.9992 63.2871C93.9992 46.4988 80.3901 32.8894 63.6021 32.8894Z" fill="white"/>
<rect x="-232.5" y="-10.5" width="364" height="142" rx="26.5" stroke="#C4C4C4" stroke-opacity="0.6"/>
</g>
<defs>
<clipPath id="clip0_0_1">
<rect width="393" height="974" fill="white" transform="translate(-247 -345)"/>
</clipPath>
</defs>
</svg>
